<svg width="28" height="27" viewBox="0 0 28 27" fill="none" xmlns="http://www.w3.org/2000/svg">
<path d="M13.9241 8.6665H25.8617C26.8241 8.6665 27.5658 9.24058 27.7865 10.1572C27.8243 10.2959 27.8451 10.439 27.8483 10.5832C27.8483 11.2961 27.8571 12.0184 27.8483 12.7313C27.8416 13.2392 27.6474 13.7245 27.3066 14.0854C26.9657 14.4463 26.5048 14.6546 26.0206 14.6665H25.3319C25.1906 14.6665 25.1465 14.7128 25.12 14.8517C24.8286 16.5276 24.5284 18.1943 24.237 19.8609C23.9721 21.3424 23.7161 22.8239 23.4512 24.3054C23.3351 24.9191 23.0203 25.4719 22.5601 25.8702C22.0999 26.2684 21.5226 26.4876 20.926 26.4906C16.1521 26.4659 11.3812 26.469 6.6133 26.4998C5.24473 26.5091 4.2205 25.4072 4.01742 24.185C3.49648 21.0739 2.93139 17.9721 2.39279 14.8609C2.3663 14.7035 2.29567 14.6572 2.15439 14.6665C1.58047 14.7035 1.05953 14.5832 0.626886 14.1665C0.431017 13.9884 0.274326 13.7678 0.16762 13.5201C0.0609146 13.2723 0.00673516 13.0032 0.00881941 12.7313C-1.01149e-05 12.0184 -1.01149e-05 11.3147 0.00881941 10.6017C0.0147651 10.107 0.199428 9.63316 0.525538 9.27572C0.851648 8.91827 1.29492 8.70386 1.76589 8.67576H13.9241V8.6665ZM11.2223 19.7498V22.648C11.2223 23.2406 11.602 23.6665 12.1318 23.6665C12.6615 23.6665 13.0324 23.2498 13.0324 22.6572C13.0412 20.7406 13.0324 18.8147 13.0324 16.898C13.0324 16.749 13.0054 16.6013 12.9529 16.4628C12.8746 16.2601 12.731 16.0925 12.5471 15.9894C12.3632 15.8862 12.1506 15.8538 11.9463 15.898C11.7415 15.9427 11.5576 16.0602 11.4257 16.2305C11.2938 16.4009 11.222 16.6137 11.2223 16.8332V19.7498ZM8.00837 19.7684V22.6665C8.00837 23.2498 8.38804 23.6665 8.91781 23.6665C9.44758 23.6665 9.80959 23.2498 9.80959 22.6665V16.898C9.81198 16.7918 9.80009 16.6858 9.77427 16.5832C9.71546 16.3672 9.58517 16.1803 9.40679 16.056C9.22842 15.9316 9.01363 15.878 8.80098 15.9048C8.58832 15.9316 8.39173 16.0369 8.24646 16.202C8.1012 16.367 8.01679 16.581 8.00837 16.8054C7.99954 17.7869 8.00837 18.7776 8.00837 19.7684ZM16.2728 19.7684V16.9165C16.2742 16.8012 16.2623 16.6862 16.2375 16.5739C16.1831 16.3514 16.0517 16.1581 15.869 16.0315C15.6862 15.9048 15.4651 15.854 15.2486 15.8887C15.0325 15.9221 14.8351 16.0359 14.6924 16.2093C14.5498 16.3827 14.4714 16.6041 14.4716 16.8332V22.7221C14.4717 22.8 14.4806 22.8777 14.4981 22.9535C14.5507 23.1763 14.6788 23.3714 14.8585 23.5023C15.0382 23.6332 15.2573 23.691 15.4747 23.6649C15.6921 23.6388 15.893 23.5306 16.0399 23.3605C16.1868 23.1904 16.2696 22.97 16.2728 22.7406V19.7684ZM19.4956 19.7961C19.4956 18.8054 19.5044 17.8147 19.4956 16.8332C19.495 16.7091 19.4711 16.5865 19.4253 16.4721C19.3795 16.3577 19.3127 16.254 19.2287 16.1667C19.1446 16.0794 19.045 16.0104 18.9355 15.9635C18.826 15.9166 18.7088 15.8927 18.5905 15.8934C18.4723 15.894 18.3553 15.919 18.2462 15.967C18.1372 16.015 18.0382 16.0851 17.955 16.1733C17.8718 16.2614 17.8059 16.3658 17.7612 16.4807C17.7165 16.5955 17.6938 16.7184 17.6944 16.8424C17.6826 18.793 17.6826 20.7468 17.6944 22.7035C17.7025 22.8939 17.7573 23.0788 17.8533 23.2406C17.9518 23.4132 18.1033 23.5456 18.2829 23.6163C18.4625 23.6869 18.6597 23.6916 18.8422 23.6295C19.0325 23.5741 19.2 23.4541 19.3182 23.2882C19.4365 23.1223 19.4988 22.9199 19.4956 22.7128C19.5044 21.7406 19.4956 20.7684 19.4956 19.7961Z" fill="#4F8640"/>
<path d="M22.1091 7.72215H19.6369C19.5871 7.72798 19.5368 7.71783 19.4927 7.69302C19.4485 7.66822 19.4126 7.62994 19.3896 7.58326C18.4184 5.81474 17.4383 4.05548 16.4671 2.29622C16.391 2.16146 16.3411 2.01221 16.3203 1.8571C16.2995 1.702 16.3083 1.54411 16.3461 1.39258C16.3838 1.24104 16.4499 1.09886 16.5403 0.974246C16.6308 0.849635 16.744 0.745069 16.8732 0.666591C17.0019 0.583454 17.1452 0.528231 17.2946 0.50419C17.444 0.480149 17.5965 0.487779 17.743 0.526629C17.8896 0.565478 18.0272 0.634757 18.1477 0.730367C18.2683 0.825976 18.3693 0.945974 18.4449 1.08326C19.6634 3.26844 20.8642 5.45363 22.0738 7.62955L22.1091 7.72215Z" fill="#4F8640"/>
<path d="M5.73926 7.73151L6.41913 6.50003L9.40351 1.12966C9.51705 0.904483 9.69724 0.724058 9.91698 0.61552C10.1367 0.506982 10.3841 0.4762 10.622 0.527805C10.8464 0.571567 11.053 0.685001 11.2152 0.8534C11.3773 1.0218 11.4875 1.2374 11.5314 1.47225C11.5891 1.74749 11.5449 2.03544 11.4078 2.2778C10.4307 4.06793 9.44471 5.84879 8.44992 7.6204C8.4317 7.65015 8.40698 7.6749 8.3778 7.69262C8.34862 7.71033 8.31583 7.72049 8.28216 7.72225L5.73926 7.73151Z" fill="#4F8640"/>
</svg>
