<svg width="71" height="72" viewBox="0 0 71 72" fill="none" xmlns="http://www.w3.org/2000/svg">
<path d="M31.3922 2.91917C33.381 0.0534041 37.619 0.053401 39.6078 2.91916L40.1716 3.7316C41.6076 5.80087 44.3586 6.47893 46.5918 5.31404L47.4686 4.85668C50.5613 3.2434 54.3139 5.21288 54.743 8.67461L54.8647 9.656C55.1746 12.1556 57.2954 14.0345 59.8141 14.0408L60.803 14.0433C64.2912 14.0521 66.6987 17.5399 65.4699 20.8045L65.1216 21.73C64.2344 24.0873 65.2391 26.7366 67.4664 27.9127L68.3409 28.3745C71.4255 30.0033 71.9363 34.2104 69.3311 36.5301L68.5926 37.1877C66.7115 38.8627 66.37 41.6754 67.7955 43.7519L68.3552 44.5671C70.3296 47.4429 68.8268 51.4054 65.442 52.2487L64.4824 52.4878C62.0384 53.0967 60.4289 55.4286 60.7262 57.9297L60.8429 58.9117C61.2546 62.3755 58.0825 65.1858 54.6935 64.3596L53.7328 64.1253C51.2857 63.5287 48.7769 64.8454 47.8778 67.1982L47.5248 68.122C46.2797 71.3804 42.1648 72.3946 39.548 70.0881L38.8062 69.4342C36.9167 67.7687 34.0833 67.7687 32.1938 69.4342L31.452 70.0881C28.8352 72.3946 24.7203 71.3804 23.4752 68.122L23.1222 67.1982C22.2231 64.8454 19.7143 63.5287 17.2672 64.1253L16.3065 64.3596C12.9175 65.1858 9.74535 62.3755 10.1571 58.9117L10.2738 57.9297C10.5711 55.4286 8.96159 53.0967 6.51757 52.4878L5.55801 52.2487C2.17325 51.4054 0.670439 47.4429 2.64475 44.5671L3.20445 43.7519C4.63003 41.6754 4.28851 38.8627 2.40742 37.1877L1.66887 36.5301C-0.936275 34.2104 -0.425447 30.0033 2.65914 28.3745L3.53361 27.9127C5.76088 26.7366 6.76561 24.0873 5.87839 21.73L5.53005 20.8045C4.30132 17.5399 6.70876 14.0521 10.197 14.0433L11.1859 14.0408C13.7046 14.0345 15.8254 12.1556 16.1353 9.656L16.257 8.67462C16.6862 5.21288 20.4387 3.2434 23.5314 4.85668L24.4082 5.31404C26.6414 6.47893 29.3924 5.80087 30.8284 3.7316L31.3922 2.91917Z" fill="#4F8640"/>
</svg>
