<svg width="25" height="23" viewBox="0 0 25 23" fill="none" xmlns="http://www.w3.org/2000/svg">
<path d="M12.3718 22.9999L10.581 21.3816C4.2068 15.6543 -0.000154115 11.8823 -0.000154115 7.24389C-0.00896697 6.36694 0.156614 5.49685 0.487133 4.68332C0.817653 3.86978 1.30664 3.12873 1.92616 2.50249C2.54569 1.87624 3.28363 1.37707 4.09783 1.03346C4.91204 0.689855 5.78657 0.508553 6.67148 0.499905H6.80503C7.86386 0.507899 8.90865 0.740799 9.86895 1.1829C10.8292 1.625 11.6827 2.26602 12.3718 3.06274C13.0617 2.26693 13.9153 1.62653 14.8754 1.18451C15.8356 0.742491 16.88 0.509069 17.9386 0.499905C18.8237 0.490378 19.7021 0.653926 20.5233 0.981189C21.3446 1.30845 22.0927 1.79301 22.7248 2.40712C23.3569 3.02123 23.8605 3.75284 24.207 4.56008C24.5534 5.36733 24.7358 6.23435 24.7438 7.11154C24.7498 7.15545 24.7498 7.19998 24.7438 7.24389C24.7438 11.8823 20.5368 15.6543 14.1687 21.3936L12.3718 22.9999Z" fill="#D6D3D3"/>
</svg>
