<svg width="70" height="71" viewBox="0 0 70 71" fill="none" xmlns="http://www.w3.org/2000/svg">
<path d="M66.5 35.5C66.5 53.2201 52.3503 67.5 35 67.5C17.6497 67.5 3.5 53.2201 3.5 35.5C3.5 17.7799 17.6497 3.5 35 3.5C52.3503 3.5 66.5 17.7799 66.5 35.5Z" fill="white" stroke="#727272" stroke-width="7"/>
<path d="M57.2308 45.088C57.2084 45.2125 57.1412 45.324 57.0425 45.4005C56.9438 45.477 56.8206 45.5131 56.6972 45.5016H56.6512C56.2924 45.417 56.1268 44.9282 56.09 44.8342C54.5536 41.281 49.5672 39.8522 46.7796 42.2304C46.2 42.7192 45.3996 43.6122 45.0408 44.7778C44.682 45.9434 44.9396 46.5356 44.4244 47.0432C43.9092 47.5508 43.394 47.297 41.692 47.25C41.3884 47.2406 40.036 47.2782 37.3496 47.3534C36.0064 47.391 35.114 47.4286 34.6264 46.8082C34.4528 46.5831 34.3444 46.3128 34.3136 46.028C34.2584 45.7178 33.6236 42.832 30.8452 41.516C28.0668 40.2 25.6288 41.4972 25.2332 41.7134C24.8376 41.9296 22.5376 43.1516 22.2248 45.182C22.0868 46.075 22.3628 46.8834 21.912 47.1748C21.4612 47.4662 20.5688 47.344 20.4952 46.7894C20.026 43.3208 21.3048 41.0554 24.3684 39.6454C24.4328 39.6172 24.488 39.448 24.4696 39.3634C24.3776 38.8746 24.0556 38.3106 24.212 37.9534C24.3684 37.5962 24.9848 37.2014 25.408 37.192C28.5452 37.1262 31.6824 37.1168 34.8196 37.192C35.298 37.2014 35.988 37.6526 36.1536 38.0756C36.3192 38.4986 36.034 39.1942 35.7212 39.6078C34.194 41.6006 34.2768 41.5066 35.666 43.7062C36.3652 44.806 37.184 44.806 38.1776 44.7496L38.3248 44.7214C38.3031 44.6922 38.2846 44.6607 38.2696 44.6274C38.104 44.148 37.8004 43.678 37.7912 43.208C37.7452 41.0554 37.782 38.9028 37.7544 36.7502C37.7556 36.6976 37.7465 36.6452 37.7277 36.5962C37.7088 36.5472 37.6805 36.5026 37.6445 36.4649C37.6085 36.4273 37.5655 36.3974 37.518 36.3769C37.4705 36.3565 37.4195 36.346 37.368 36.346C35.85 36.3178 34.3228 36.3272 32.8048 36.3272C30.8268 36.3272 29.7228 35.0582 29.8976 32.9244C30.0371 31.1443 30.0341 29.3554 29.8884 27.5758C29.7596 26.053 30.2748 24.8592 31.6088 24.4174C32.9428 23.9756 34.2952 23.8346 35.3808 24.9814C35.7488 25.3668 36.034 25.6582 36.1536 25.818C37.5152 27.5946 37.7636 28.45 38.6284 28.826C39.0332 29.0046 39.4104 28.9858 40.1556 28.9294C41.8208 28.7978 42.3912 28.168 44.6636 27.6228C45.7584 27.3502 46.1724 27.3784 46.5312 27.5946C46.89 27.8108 47.3316 28.7696 47.2304 29.2772C47.1292 29.7848 46.43 30.3206 45.9884 30.8376C45.9148 30.9316 45.74 31.0538 45.7584 31.1008C46.614 33.6482 47.4696 36.1956 48.3528 38.7242C48.408 38.8934 48.684 39.0908 48.8588 39.0908C50.9472 39.0626 52.87 39.4198 54.4524 40.5572C55.0964 41.0178 55.5196 41.4596 56.1544 42.2774C57.2768 43.6968 57.286 44.4488 57.286 44.665C57.2791 44.8073 57.2607 44.9488 57.2308 45.088ZM43.1548 32.3134L42.8328 32.1254C42.2532 31.7588 41.922 31.317 41.8484 31.317C39.438 31.2418 36.862 31.8152 35.1232 29.343C35.0588 29.4088 34.9392 29.4746 34.9392 29.5404C34.93 30.5086 34.93 31.4768 34.9668 32.445C34.9668 32.5672 35.1692 32.774 35.2796 32.774C36.4296 32.8022 37.5796 32.7928 38.7204 32.7928C40.4132 32.7928 41.1124 33.4884 41.1124 35.2368C41.1216 37.7278 41.1492 40.2188 41.1032 42.7098C41.0848 43.3302 40.8364 43.9506 40.6984 44.571C40.6892 44.5992 40.7536 44.6744 40.7904 44.6744C41.5632 44.806 42.2808 44.7308 42.75 44.289C43.0163 44.0202 43.1905 43.6707 43.2468 43.2926C43.6424 41.328 43.1824 32.7552 43.1548 32.3134Z" fill="#727272"/>
<path d="M33.0256 22.9134C34.5753 22.9134 35.8316 21.6298 35.8316 20.0464C35.8316 18.463 34.5753 17.1794 33.0256 17.1794C31.4759 17.1794 30.2196 18.463 30.2196 20.0464C30.2196 21.6298 31.4759 22.9134 33.0256 22.9134Z" fill="#727272"/>
<path d="M28.2968 24.0978H18.2228C17.6131 24.0978 17.1188 24.6028 17.1188 25.2258V35.5207C17.1188 36.1437 17.6131 36.6487 18.2228 36.6487H28.2968C28.9065 36.6487 29.4008 36.1437 29.4008 35.5207V25.2258C29.4008 24.6028 28.9065 24.0978 28.2968 24.0978Z" fill="#727272"/>
<path d="M27.9748 41.6946C27.0413 41.6946 26.1289 41.9774 25.3527 42.5073C24.5766 43.0372 23.9717 43.7903 23.6145 44.6714C23.2572 45.5526 23.1638 46.5221 23.3459 47.4576C23.528 48.393 23.9775 49.2522 24.6375 49.9266C25.2976 50.601 26.1385 51.0603 27.054 51.2463C27.9696 51.4324 28.9185 51.3369 29.7809 50.9719C30.6433 50.6069 31.3804 49.9889 31.899 49.1959C32.4176 48.4029 32.6944 47.4705 32.6944 46.5168C32.6944 45.2379 32.1972 44.0113 31.3121 43.107C30.427 42.2026 29.2265 41.6946 27.9748 41.6946ZM27.9748 48.5848C27.5719 48.5867 27.1775 48.4662 26.8418 48.2386C26.506 48.0111 26.244 47.6867 26.0889 47.3067C25.9339 46.9268 25.8929 46.5083 25.971 46.1044C26.0492 45.7006 26.243 45.3296 26.5279 45.0385C26.8128 44.7474 27.176 44.5493 27.5712 44.4695C27.9665 44.3896 28.376 44.4316 28.7479 44.5899C29.1198 44.7483 29.4373 45.0161 29.66 45.3591C29.8827 45.7022 30.0006 46.1051 29.9988 46.5168C30 46.7887 29.9485 47.0582 29.8472 47.3097C29.7459 47.5611 29.5969 47.7896 29.4087 47.9819C29.2205 48.1741 28.9969 48.3264 28.7508 48.4299C28.5047 48.5334 28.2409 48.586 27.9748 48.5848Z" fill="#727272"/>
<path d="M50.4412 41.6946C49.5077 41.6946 48.5953 41.9774 47.8191 42.5073C47.043 43.0372 46.4381 43.7903 46.0809 44.6714C45.7236 45.5526 45.6302 46.5221 45.8123 47.4576C45.9944 48.393 46.4439 49.2522 47.1039 49.9266C47.764 50.601 48.6049 51.0603 49.5204 51.2463C50.436 51.4324 51.3849 51.3369 52.2473 50.9719C53.1097 50.6069 53.8468 49.9889 54.3654 49.1959C54.884 48.4029 55.1608 47.4705 55.1608 46.5168C55.1608 45.2379 54.6636 44.0113 53.7785 43.107C52.8934 42.2026 51.6929 41.6946 50.4412 41.6946ZM50.4412 48.5848C50.0383 48.5867 49.6439 48.4662 49.3082 48.2386C48.9724 48.0111 48.7104 47.6867 48.5553 47.3067C48.4003 46.9268 48.3593 46.5083 48.4374 46.1044C48.5156 45.7006 48.7094 45.3296 48.9943 45.0385C49.2792 44.7474 49.6424 44.5493 50.0376 44.4695C50.4329 44.3896 50.8424 44.4316 51.2143 44.5899C51.5862 44.7483 51.9037 45.0161 52.1264 45.3591C52.3491 45.7022 52.467 46.1051 52.4652 46.5168C52.4664 46.7887 52.4149 47.0582 52.3136 47.3097C52.2123 47.5611 52.0633 47.7896 51.8751 47.9819C51.6869 48.1741 51.4633 48.3264 51.2172 48.4299C50.9711 48.5334 50.7073 48.586 50.4412 48.5848Z" fill="#727272"/>
</svg>
