<svg width="79" height="79" viewBox="0 0 79 79" fill="none" xmlns="http://www.w3.org/2000/svg">
<path d="M35.3922 5.91917C37.381 3.0534 41.619 3.0534 43.6078 5.91916L44.1716 6.7316C45.6076 8.80087 48.3586 9.47893 50.5918 8.31404L51.4686 7.85668C54.5613 6.2434 58.3138 8.21288 58.743 11.6746L58.8647 12.656C59.1746 15.1556 61.2954 17.0345 63.8141 17.0408L64.803 17.0433C68.2912 17.0521 70.6987 20.5399 69.4699 23.8045L69.1216 24.73C68.2344 27.0873 69.2391 29.7366 71.4664 30.9127L72.3409 31.3745C75.4255 33.0033 75.9363 37.2104 73.3311 39.5301L72.5926 40.1877C70.7115 41.8627 70.37 44.6754 71.7955 46.7519L72.3552 47.5671C74.3296 50.4429 72.8268 54.4054 69.442 55.2487L68.4824 55.4878C66.0384 56.0968 64.4289 58.4286 64.7262 60.9297L64.8429 61.9117C65.2546 65.3755 62.0825 68.1858 58.6935 67.3596L57.7328 67.1253C55.2857 66.5287 52.7769 67.8454 51.8778 70.1982L51.5248 71.122C50.2797 74.3804 46.1648 75.3946 43.548 73.0881L42.8062 72.4342C40.9167 70.7687 38.0833 70.7687 36.1938 72.4342L35.452 73.0881C32.8352 75.3946 28.7203 74.3804 27.4752 71.122L27.1222 70.1982C26.2231 67.8454 23.7143 66.5287 21.2672 67.1253L20.3065 67.3596C16.9175 68.1858 13.7454 65.3755 14.1571 61.9117L14.2738 60.9297C14.5711 58.4286 12.9616 56.0968 10.5176 55.4878L9.55801 55.2487C6.17325 54.4054 4.67044 50.4429 6.64475 47.5671L7.20445 46.7519C8.63003 44.6754 8.28851 41.8627 6.40742 40.1877L5.66887 39.5301C3.06373 37.2104 3.57455 33.0033 6.65914 31.3745L7.53361 30.9127C9.76088 29.7366 10.7656 27.0873 9.87839 24.73L9.53005 23.8045C8.30132 20.5399 10.7088 17.0521 14.197 17.0433L15.1859 17.0408C17.7046 17.0345 19.8254 15.1556 20.1353 12.656L20.257 11.6746C20.6862 8.21288 24.4387 6.2434 27.5314 7.85668L28.4082 8.31404C30.6414 9.47893 33.3924 8.80087 34.8284 6.7316L35.3922 5.91917Z" fill="#727272"/>
<path d="M29.9219 53.8105C29.9219 54.1582 29.957 54.4941 30.0273 54.8184C30.1016 55.1387 30.2148 55.4238 30.3672 55.6738C30.5195 55.9199 30.7148 56.1172 30.9531 56.2656C31.1953 56.4141 31.4844 56.4883 31.8203 56.4883C32.1562 56.4883 32.4434 56.4141 32.6816 56.2656C32.9238 56.1172 33.1211 55.9199 33.2734 55.6738C33.4258 55.4238 33.5371 55.1387 33.6074 54.8184C33.6777 54.4941 33.7129 54.1582 33.7129 53.8105C33.7129 53.4512 33.6777 53.1094 33.6074 52.7852C33.5371 52.4609 33.4258 52.1777 33.2734 51.9355C33.1211 51.6895 32.9238 51.4961 32.6816 51.3555C32.4434 51.2109 32.1562 51.1387 31.8203 51.1387C31.4844 51.1387 31.1953 51.2109 30.9531 51.3555C30.7148 51.4961 30.5195 51.6895 30.3672 51.9355C30.2148 52.1777 30.1016 52.4609 30.0273 52.7852C29.957 53.1094 29.9219 53.4512 29.9219 53.8105ZM27.6191 53.8105C27.6191 53.1387 27.709 52.5352 27.8887 52C28.0684 51.4648 28.334 51.0117 28.6855 50.6406C29.041 50.2656 29.4805 49.9785 30.0039 49.7793C30.5273 49.5801 31.1328 49.4805 31.8203 49.4805C32.5078 49.4805 33.1133 49.5801 33.6367 49.7793C34.1602 49.9785 34.5977 50.2656 34.9492 50.6406C35.3008 51.0117 35.5664 51.4648 35.7461 52C35.9258 52.5352 36.0156 53.1387 36.0156 53.8105C36.0156 54.4785 35.9238 55.0801 35.7402 55.6152C35.5605 56.1504 35.293 56.6055 34.9375 56.9805C34.5859 57.3555 34.1484 57.6445 33.625 57.8477C33.1055 58.0469 32.5039 58.1465 31.8203 58.1465C31.1328 58.1465 30.5273 58.0469 30.0039 57.8477C29.4844 57.6445 29.0469 57.3555 28.6914 56.9805C28.3359 56.6055 28.0684 56.1504 27.8887 55.6152C27.709 55.0801 27.6191 54.4785 27.6191 53.8105ZM37.2109 49.6211L42.8125 49.6211V51.209L39.4434 51.209L39.4434 53.043L42.6719 53.043V54.6309L39.4434 54.6309L39.4434 58L37.2109 58L37.2109 49.6211ZM43.8906 49.6211L49.4922 49.6211V51.209L46.123 51.209V53.043L49.3516 53.043L49.3516 54.6309L46.123 54.6309L46.123 58H43.8906L43.8906 49.6211Z" fill="white"/>
<path d="M19.2396 28.4441H28.1717V31H22.3831V33.3388C22.6387 33.3125 22.8527 33.2928 23.0252 33.2796C23.1977 33.2664 23.3415 33.2599 23.4565 33.2599C24.1529 33.2599 24.8174 33.3421 25.4499 33.5066C26.0824 33.6645 26.6383 33.9211 27.1175 34.2763C27.6031 34.625 27.9864 35.0757 28.2676 35.6283C28.5551 36.1809 28.6988 36.8454 28.6988 37.6217C28.6988 38.273 28.619 38.8553 28.4592 39.3684C28.3059 39.8816 28.0887 40.3289 27.8075 40.7105C27.5328 41.0921 27.2038 41.4178 26.8204 41.6875C26.4434 41.9507 26.0313 42.1678 25.5841 42.3388C25.1432 42.5033 24.6736 42.6217 24.1753 42.6941C23.6769 42.7664 23.1754 42.8026 22.6706 42.8026C21.9933 42.8026 21.3512 42.7533 20.7443 42.6546C20.1437 42.5625 19.5623 42.4408 19 42.2895L19.0575 39.2401C19.5814 39.5164 20.1181 39.7138 20.6676 39.8322C21.2234 39.9507 21.8017 40.0099 22.4023 40.0099C22.7345 40.0099 23.0635 39.977 23.3894 39.9112C23.7216 39.8388 24.0187 39.7171 24.2807 39.5461C24.5426 39.375 24.7535 39.1447 24.9132 38.8553C25.0793 38.5658 25.1624 38.1974 25.1624 37.75C25.1624 37.3553 25.0698 37.0263 24.8845 36.7632C24.7056 36.5 24.4724 36.2895 24.1849 36.1316C23.8973 35.9671 23.5715 35.852 23.2073 35.7862C22.8495 35.7204 22.4885 35.6875 22.1243 35.6875C21.626 35.6875 21.1276 35.7105 20.6293 35.7566C20.1373 35.8026 19.6421 35.8914 19.1438 36.023L19.2396 28.4441Z" fill="white"/>
<path d="M35.4988 40.2566C35.7735 40.2566 36.0067 40.1908 36.1984 40.0592C36.3964 39.9276 36.5594 39.75 36.6871 39.5263C36.8213 39.2961 36.9267 39.0263 37.0034 38.7171C37.0801 38.4079 37.1376 38.0789 37.1759 37.7303C37.2206 37.375 37.2494 37.0099 37.2622 36.6349C37.275 36.2533 37.2813 35.875 37.2813 35.5C37.2813 34.9408 37.2654 34.3783 37.2334 33.8125C37.2015 33.2467 37.1248 32.7368 37.0034 32.2829C36.882 31.8289 36.7031 31.4605 36.4667 31.1776C36.2303 30.8947 35.9077 30.7533 35.4988 30.7533C35.2176 30.7533 34.978 30.8191 34.78 30.9507C34.5883 31.0822 34.4254 31.2632 34.2912 31.4934C34.1634 31.7171 34.0612 31.9836 33.9845 32.2928C33.9078 32.5954 33.8503 32.9243 33.812 33.2796C33.7737 33.6283 33.7481 33.9934 33.7353 34.375C33.7225 34.75 33.713 35.125 33.7066 35.5C33.713 35.8684 33.7225 36.2434 33.7353 36.625C33.7481 37.0066 33.7737 37.375 33.812 37.7303C33.8503 38.0789 33.9078 38.4079 33.9845 38.7171C34.0612 39.0263 34.1634 39.2961 34.2912 39.5263C34.4254 39.75 34.5883 39.9276 34.78 40.0592C34.978 40.1908 35.2176 40.2566 35.4988 40.2566ZM35.4988 42.8026C34.3615 42.8026 33.4446 42.5954 32.7482 42.1809C32.0454 41.7533 31.5087 41.2039 31.1381 40.5329C30.7611 39.8421 30.5056 39.0625 30.3714 38.1941C30.3075 37.7533 30.2596 37.3092 30.2276 36.8618C30.1957 36.4145 30.1797 35.9605 30.1797 35.5C30.1797 35.0395 30.1957 34.5888 30.2276 34.148C30.2596 33.7007 30.3075 33.2566 30.3714 32.8158C30.5056 31.9539 30.7611 31.1776 31.1381 30.4868C31.5151 29.8026 32.0518 29.2533 32.7482 28.8388C33.4446 28.4178 34.3615 28.2072 35.4988 28.2072C36.6424 28.2072 37.5561 28.4178 38.2397 28.8388C38.9362 29.2533 39.4728 29.8026 39.8498 30.4868C40.2396 31.1776 40.4951 31.9539 40.6165 32.8158C40.7507 33.6974 40.8178 34.5921 40.8178 35.5C40.8178 36.4211 40.7507 37.3191 40.6165 38.1941C40.4951 39.0625 40.2396 39.8421 39.8498 40.5329C39.4792 41.2039 38.9425 41.7533 38.2397 42.1809C37.5497 42.5954 36.636 42.8026 35.4988 42.8026Z" fill="white"/>
<path d="M44.7234 32.3914C44.7234 32.648 44.7298 32.9145 44.7425 33.1908C44.7553 33.4671 44.7905 33.7237 44.848 33.9605C44.9119 34.1908 45.0077 34.3816 45.1355 34.5329C45.2697 34.6776 45.4549 34.75 45.6913 34.75C45.9277 34.75 46.1098 34.6776 46.2376 34.5329C46.3718 34.3816 46.4676 34.1908 46.5251 33.9605C46.589 33.7237 46.6242 33.4671 46.6306 33.1908C46.6433 32.9145 46.6497 32.648 46.6497 32.3914C46.6497 32.1414 46.6433 31.8783 46.6306 31.602C46.6242 31.3191 46.589 31.0625 46.5251 30.8322C46.4676 30.5954 46.3718 30.4013 46.2376 30.25C46.1098 30.0987 45.9277 30.023 45.6913 30.023C45.4549 30.023 45.2697 30.0987 45.1355 30.25C45.0077 30.4013 44.9119 30.5954 44.848 30.8322C44.7905 31.0625 44.7553 31.3191 44.7425 31.602C44.7298 31.8783 44.7234 32.1414 44.7234 32.3914ZM42.2508 32.3914C42.2508 31.8059 42.3083 31.2599 42.4233 30.7533C42.5447 30.2401 42.7395 29.7961 43.0079 29.4211C43.2762 29.0461 43.6276 28.75 44.0621 28.5329C44.503 28.3158 45.046 28.2072 45.6913 28.2072C46.3303 28.2072 46.867 28.3158 47.3014 28.5329C47.7423 28.75 48.0969 29.0461 48.3652 29.4211C48.6336 29.7961 48.8253 30.2401 48.9403 30.7533C49.0617 31.2599 49.1224 31.8059 49.1224 32.3914C49.1224 32.9967 49.0617 33.5559 48.9403 34.0691C48.8253 34.5822 48.6336 35.0263 48.3652 35.4013C48.0969 35.7697 47.7423 36.0592 47.3014 36.2697C46.867 36.4737 46.3303 36.5757 45.6913 36.5757C45.046 36.5757 44.503 36.4737 44.0621 36.2697C43.6276 36.0592 43.2762 35.7697 43.0079 35.4013C42.7395 35.0263 42.5447 34.5822 42.4233 34.0691C42.3083 33.5559 42.2508 32.9967 42.2508 32.3914ZM53.7705 28H55.9173L48.4323 43H46.276L53.7705 28ZM55.601 38.6184C55.601 38.875 55.6042 39.1414 55.6106 39.4178C55.6234 39.6941 55.6585 39.9507 55.716 40.1875C55.7799 40.4178 55.8758 40.6086 56.0035 40.7599C56.1377 40.9046 56.323 40.977 56.5594 40.977C56.7958 40.977 56.9779 40.9046 57.1057 40.7599C57.2399 40.6086 57.3357 40.4178 57.3932 40.1875C57.4571 39.9507 57.4954 39.6941 57.5082 39.4178C57.521 39.1414 57.5274 38.875 57.5274 38.6184C57.5274 38.3684 57.521 38.1053 57.5082 37.8289C57.4954 37.5461 57.4571 37.2895 57.3932 37.0592C57.3357 36.8224 57.2399 36.6283 57.1057 36.477C56.9779 36.3257 56.7958 36.25 56.5594 36.25C56.323 36.25 56.1377 36.3257 56.0035 36.477C55.8758 36.6283 55.7799 36.8224 55.716 37.0592C55.6585 37.2895 55.6234 37.5461 55.6106 37.8289C55.6042 38.1053 55.601 38.3684 55.601 38.6184ZM53.1284 38.6184C53.1284 38.0329 53.1859 37.4868 53.3009 36.9803C53.4223 36.4671 53.6172 36.023 53.8855 35.648C54.1539 35.273 54.5053 34.977 54.9397 34.7599C55.3806 34.5428 55.9205 34.4342 56.5594 34.4342C57.1983 34.4342 57.7382 34.5428 58.1791 34.7599C58.6199 34.977 58.9745 35.273 59.2429 35.648C59.5112 36.023 59.7029 36.4671 59.8179 36.9803C59.9393 37.4868 60 38.0329 60 38.6184C60 39.2237 59.9393 39.7829 59.8179 40.2961C59.7029 40.8026 59.5112 41.2434 59.2429 41.6184C58.9745 41.9868 58.6199 42.2763 58.1791 42.4868C57.7382 42.6974 57.1983 42.8026 56.5594 42.8026C55.9205 42.8026 55.3806 42.6974 54.9397 42.4868C54.5053 42.2763 54.1539 41.9868 53.8855 41.6184C53.6172 41.2434 53.4223 40.8026 53.3009 40.2961C53.1859 39.7829 53.1284 39.2237 53.1284 38.6184Z" fill="white"/>
</svg>
