<svg width="63" height="56" viewBox="0 0 63 56" fill="none" xmlns="http://www.w3.org/2000/svg">
<path d="M9.17986 31.3922C9.96386 29.3762 10.5463 27.8978 11.1511 26.397C11.4423 25.6578 11.9799 25.1426 12.8311 25.501C13.6823 25.8594 13.6375 26.5314 13.3687 27.2482C12.2711 30.1378 11.1735 33.0498 10.0087 35.917C9.56066 37.0818 8.70946 37.1266 7.79106 36.4098C5.41666 34.5282 3.08706 32.6242 0.735058 30.7426C0.130258 30.2274 -0.317742 29.6226 0.287058 28.8834C0.891858 28.1442 1.63106 28.3682 2.28066 28.9058L6.85026 32.5794C6.42094 29.3496 6.46622 26.0744 6.98466 22.8578C8.77666 12.3746 17.4007 3.21297 27.8615 0.771367C39.1735 -1.84943 50.4631 2.31696 57.2279 11.613C63.6567 20.4386 64.2615 32.9602 58.6839 42.0546C58.2135 42.8386 57.7207 43.7794 56.6455 43.1522C55.5703 42.525 56.1751 41.6514 56.6007 40.8674C62.2007 30.7874 60.9687 19.0946 53.3751 10.6946C46.1399 2.65297 34.4695 0.188966 24.2775 4.51217C14.4215 8.70097 8.26146 18.9378 9.02306 29.8466C9.04546 30.1602 9.09026 30.4738 9.17986 31.3922Z" fill="#727272"/>
<path d="M54.4503 45.7954C53.9127 45.325 53.3079 45.3922 52.8151 45.8626C49.517 49.1911 45.3862 51.5737 40.8535 52.7618L40.5847 52.8514C40.3121 52.9296 40.0814 53.1124 39.943 53.36C39.8045 53.6075 39.7695 53.8997 39.8455 54.173C39.9575 54.7778 40.4055 55.1138 41.3239 55.1138C46.3415 53.8146 50.9335 51.3282 54.6295 47.3186C55.0551 46.8482 54.9431 46.221 54.4503 45.7954Z" fill="#727272"/>
<path d="M35.0295 53.6129C33.9943 53.6386 32.959 53.5636 31.9383 53.3889C29.5942 53.1612 27.2941 52.6031 25.1063 51.7312C24.2775 51.4176 23.3815 51.1488 22.9783 52.224C22.5751 53.2992 23.4487 53.68 24.2999 54.016C27.1282 55.1171 30.1163 55.7526 33.1479 55.8976C33.9543 55.7856 35.4999 56.4577 35.6119 54.8449C35.6567 54.1281 35.4103 53.7921 35.0295 53.6129Z" fill="#727272"/>
<path d="M15.1383 45.0112C16.7063 46.4 18.4311 47.4752 19.5511 49.2C19.6631 49.3792 19.3943 49.9616 19.1479 50.2304C18.9871 50.4199 18.7578 50.538 18.5102 50.5589C18.2626 50.5799 18.0167 50.5021 17.8263 50.3424C16.5719 49.2896 15.3623 48.192 14.1751 47.072C13.9889 46.9081 13.8751 46.6772 13.8583 46.4297C13.8415 46.1822 13.9232 45.938 14.0855 45.7504C14.3319 45.4592 14.7127 45.3024 15.1383 45.0112Z" fill="#727272"/>
<path d="M48.5841 14.8939L17.2853 26.2239C15.8545 26.7418 15.1145 28.3216 15.6325 29.7524L19.1077 39.3526C19.6256 40.7834 21.2054 41.5234 22.6362 41.0055L53.935 29.6755C55.3658 29.1576 56.1058 27.5778 55.5879 26.147L52.1126 16.5467C51.5947 15.1159 50.0149 14.3759 48.5841 14.8939Z" fill="#727272"/>
<path d="M50.1248 29.734C49.6253 28.3543 49.6944 26.8326 50.3169 25.5038C50.9394 24.175 52.0642 23.1478 53.444 22.6484L54.8697 26.587C54.9911 26.9222 54.9743 27.2918 54.8231 27.6146C54.6719 27.9374 54.3986 28.1869 54.0635 28.3083L50.1248 29.734Z" fill="white"/>
<path d="M17.3974 27.3698L21.3361 25.944C21.8355 27.3238 21.7664 28.8455 21.144 30.1743C20.5215 31.5031 19.3967 32.5302 18.0169 33.0297L16.5911 29.091C16.4698 28.7559 16.4866 28.3862 16.6378 28.0634C16.789 27.7406 17.0622 27.4911 17.3974 27.3698Z" fill="white"/>
<path d="M20.2757 39.1335L18.8499 35.1949C20.2297 34.6954 21.7514 34.7645 23.0802 35.387C24.409 36.0094 25.4361 37.1343 25.9356 38.514L22.018 39.9322C21.8513 39.9957 21.6736 40.0254 21.4953 40.0195C21.317 40.0136 21.1416 39.9723 20.9795 39.898C20.8173 39.8237 20.6715 39.7178 20.5507 39.5865C20.4299 39.4553 20.3364 39.3013 20.2757 39.1335Z" fill="white"/>
<path d="M52.6252 20.4162C51.2455 20.9156 49.7238 20.8465 48.395 20.2241C47.0661 19.6016 46.039 18.4768 45.5396 17.097L49.4782 15.6712C49.8134 15.5499 50.183 15.5667 50.5058 15.7179C50.8286 15.8691 51.0781 16.1423 51.1995 16.4775L52.6252 20.4162Z" fill="white"/>
<path d="M35.7015 34.0575C39.0293 34.0575 41.7271 31.3598 41.7271 28.0319C41.7271 24.7041 39.0293 22.0063 35.7015 22.0063C32.3736 22.0063 29.6759 24.7041 29.6759 28.0319C29.6759 31.3598 32.3736 34.0575 35.7015 34.0575Z" fill="white"/>
<path d="M33.4615 27.2927C33.2969 27.2777 33.1311 27.2853 32.9687 27.3151L32.4535 27.4271L32.1847 27.5839C32.1141 27.6318 32.0533 27.6926 32.0055 27.7631C31.9655 27.8491 31.9355 27.9392 31.9159 28.0319C31.9215 28.1302 31.9365 28.2277 31.9607 28.3231C31.9948 28.3966 32.0492 28.4587 32.1175 28.5023L32.3415 28.6143H33.3943L33.7751 28.6815C33.9011 28.7063 34.0222 28.7517 34.1335 28.8159C34.2481 28.8754 34.3536 28.9508 34.4471 29.0399L34.5815 29.2639L34.6935 29.5103C34.7738 29.7324 34.8044 29.9695 34.7831 30.2047C34.7559 30.4071 34.679 30.5995 34.5591 30.7647C34.4369 30.9466 34.2763 31.0995 34.0887 31.2127C33.893 31.3364 33.6822 31.4343 33.4615 31.5039C33.2665 31.5841 33.0638 31.6442 32.8567 31.6831L32.2295 31.7727L32.0055 30.9215C32.1981 30.9514 32.3935 30.9589 32.5879 30.9439C32.7795 30.9229 32.9676 30.8778 33.1479 30.8095C33.2455 30.783 33.3369 30.7373 33.4167 30.6751C33.5066 30.6271 33.5835 30.5579 33.6407 30.4735C33.7065 30.4047 33.7529 30.3197 33.7751 30.2271C33.8003 30.1303 33.7924 30.0278 33.7527 29.9359L33.6855 29.8015C33.6602 29.7538 33.6212 29.7148 33.5735 29.6895L33.4391 29.6223L33.2823 29.5775L32.8791 29.5327H32.0503L31.6919 29.4207C31.5842 29.3911 31.4846 29.3375 31.4007 29.2639C31.3151 29.201 31.2396 29.1255 31.1767 29.0399C31.1068 28.937 31.0539 28.8236 31.0199 28.7039C30.9767 28.6037 30.9466 28.4983 30.9303 28.3903C30.9125 28.2868 30.905 28.1817 30.9079 28.0767L30.9751 27.7407C31.0186 27.6392 31.071 27.5417 31.1319 27.4495C31.2645 27.291 31.4148 27.1483 31.5799 27.0239C31.7472 26.9123 31.9278 26.822 32.1175 26.7551L32.6999 26.5759L33.2823 26.5087L33.4615 27.2927Z" fill="#727272"/>
<path d="M35.7463 29.6223L36.6647 29.2863L37.0007 30.1823L36.0823 30.5183L35.7463 29.6223Z" fill="#727272"/>
<path d="M36.4183 25.2767L37.6279 24.8511C37.8492 24.7575 38.0832 24.6971 38.3223 24.6719C38.5577 24.6197 38.8008 24.6121 39.0391 24.6495C39.1557 24.6582 39.2696 24.6886 39.3751 24.7391C39.4772 24.7878 39.5685 24.8563 39.6439 24.9407C39.7355 25.0147 39.8116 25.1061 39.8679 25.2095C39.926 25.3078 39.9712 25.4132 40.0023 25.5231C40.0995 25.7488 40.138 25.9954 40.1143 26.2399C40.1016 26.4525 40.0233 26.656 39.8903 26.8223C39.7703 26.9984 39.6183 27.1503 39.4423 27.2703C39.2325 27.4088 39.0069 27.5217 38.7703 27.6063L38.3671 27.7407L38.9943 29.4655L38.0759 29.8015L36.4183 25.2767ZM38.1207 27.0239L38.4567 26.9119L38.7703 26.7551C38.8546 26.6995 38.9301 26.6316 38.9943 26.5535C39.0636 26.472 39.1031 26.3693 39.1063 26.2623C39.1224 26.1483 39.107 26.0321 39.0615 25.9263C39.0255 25.8099 38.9643 25.7028 38.8823 25.6127L38.6135 25.4783C38.5061 25.4379 38.3892 25.4301 38.2775 25.4559C38.1609 25.4646 38.0469 25.495 37.9415 25.5455L37.6055 25.6575L38.1207 27.0239Z" fill="#727272"/>
<path d="M52.2775 19.5871H18.9911C17.222 19.5871 15.7879 21.0212 15.7879 22.7903V33.0002C15.7879 34.7693 17.222 36.2034 18.9911 36.2034H52.2775C54.0465 36.2034 55.4807 34.7693 55.4807 33.0002V22.7903C55.4807 21.0212 54.0465 19.5871 52.2775 19.5871Z" fill="#727272"/>
<path d="M52.2999 20.0351C53.0267 20.0351 53.7241 20.3223 54.2402 20.8342C54.7563 21.346 55.0492 22.0411 55.0551 22.7679V33.0047C55.0551 33.3655 54.9837 33.7227 54.8449 34.0557C54.7062 34.3888 54.5029 34.691 54.2467 34.9451C53.9906 35.1991 53.6867 35.4 53.3525 35.536C53.0184 35.672 52.6606 35.7405 52.2999 35.7375H18.9911C18.6303 35.7405 18.2725 35.672 17.9384 35.536C17.6042 35.4 17.3003 35.1991 17.0442 34.9451C16.788 34.691 16.5847 34.3888 16.446 34.0557C16.3073 33.7227 16.2358 33.3655 16.2359 33.0047V22.7679C16.2418 22.0411 16.5347 21.346 17.0507 20.8342C17.5668 20.3223 18.2642 20.0351 18.9911 20.0351H52.2999ZM52.2999 19.1391H18.9911C18.0266 19.1391 17.1013 19.5207 16.4172 20.2006C15.7331 20.8805 15.3458 21.8035 15.3399 22.7679V33.0047C15.3398 33.4832 15.4344 33.9569 15.6182 34.3986C15.802 34.8403 16.0713 35.2414 16.4106 35.5786C16.75 35.9159 17.1526 36.1827 17.5955 36.3638C18.0384 36.5448 18.5126 36.6365 18.9911 36.6335H52.2999C52.7783 36.6365 53.2526 36.5448 53.6954 36.3638C54.1383 36.1827 54.541 35.9159 54.8803 35.5786C55.2196 35.2414 55.4889 34.8403 55.6727 34.3986C55.8565 33.9569 55.9511 33.4832 55.9511 33.0047V22.7679C55.9451 21.8035 55.5579 20.8805 54.8738 20.2006C54.1897 19.5207 53.2644 19.1391 52.2999 19.1391Z" fill="white"/>
<path d="M48.5815 34.5279C48.5815 33.0605 49.1644 31.6532 50.202 30.6156C51.2396 29.578 52.6469 28.9951 54.1143 28.9951V33.1615C54.1143 33.518 53.9727 33.8598 53.7206 34.1119C53.4686 34.3639 53.1267 34.5055 52.7703 34.5055H48.5815V34.5279Z" fill="white"/>
<path d="M18.6999 21.1551H22.8887C22.8887 22.6225 22.3057 24.0298 21.2681 25.0674C20.2305 26.105 18.8232 26.6879 17.3559 26.6879V22.4991C17.3559 22.1427 17.4975 21.8008 17.7495 21.5488C18.0016 21.2967 18.3434 21.1551 18.6999 21.1551Z" fill="white"/>
<path d="M17.3335 33.1615V28.9727C18.8008 28.9727 20.2081 29.5556 21.2457 30.5932C22.2833 31.6308 22.8663 33.0381 22.8663 34.5055H18.6999C18.5215 34.5085 18.3443 34.4759 18.1786 34.4097C18.013 34.3435 17.8622 34.245 17.735 34.1199C17.6078 33.9948 17.5068 33.8456 17.4379 33.6811C17.3689 33.5165 17.3334 33.3399 17.3335 33.1615Z" fill="white"/>
<path d="M54.1367 26.7103C52.6693 26.7103 51.262 26.1274 50.2244 25.0898C49.1868 24.0522 48.6039 22.6449 48.6039 21.1775H52.7703C53.1267 21.1775 53.4686 21.3191 53.7206 21.5712C53.9727 21.8232 54.1143 22.1651 54.1143 22.5215V26.7103H54.1367Z" fill="white"/>
<path d="M35.6567 34.0799C38.9845 34.0799 41.6823 31.3822 41.6823 28.0543C41.6823 24.7265 38.9845 22.0287 35.6567 22.0287C32.3288 22.0287 29.6311 24.7265 29.6311 28.0543C29.6311 31.3822 32.3288 34.0799 35.6567 34.0799Z" fill="white"/>
<path d="M33.7975 26.5759L33.3271 26.4191L32.8119 26.3743L32.4983 26.4191L32.2519 26.5311C32.1872 26.5963 32.1342 26.6721 32.0951 26.7551C32.0467 26.8443 32.0235 26.945 32.0279 27.0463C32.0342 27.1284 32.0654 27.2066 32.1175 27.2703C32.1662 27.334 32.2271 27.3873 32.2967 27.4271L32.5879 27.5839L32.9015 27.7183L33.2599 27.8527L33.5959 28.0319C33.7027 28.1017 33.8005 28.1845 33.8871 28.2783C33.9795 28.3731 34.0485 28.4882 34.0887 28.6143C34.1345 28.6882 34.1578 28.7738 34.1559 28.8607C34.1728 28.9493 34.1803 29.0394 34.1783 29.1295C34.1872 29.3707 34.1332 29.61 34.0215 29.8239C33.9315 30.008 33.7918 30.1631 33.6183 30.2719C33.4435 30.3939 33.2451 30.4778 33.0359 30.5183C32.8072 30.564 32.5746 30.5865 32.3415 30.5855C32.1314 30.5929 31.9211 30.5779 31.7143 30.5407L31.0871 30.4063L31.1767 29.5327C31.3474 29.6263 31.5276 29.7014 31.7143 29.7567C31.9052 29.8012 32.1006 29.8238 32.2967 29.8239H32.5879L32.8567 29.7119C32.9466 29.6639 33.0235 29.5947 33.0807 29.5103C33.1295 29.4295 33.153 29.3358 33.1479 29.2415V29.0847L33.0807 28.9503L32.9687 28.8159L32.8343 28.7263L32.4759 28.5695L32.0951 28.4127L31.8935 28.3231L31.7143 28.2335L31.4007 28.0095C31.2445 27.8621 31.1288 27.6769 31.0647 27.4719C31.0261 27.3566 31.0109 27.2348 31.0199 27.1135C31.0162 27.0011 31.0237 26.8885 31.0423 26.7775C31.0586 26.6696 31.0887 26.5642 31.1319 26.4639L31.3111 26.1951C31.3706 26.0989 31.456 26.0213 31.5575 25.9711C31.7264 25.8535 31.9166 25.7698 32.1175 25.7247C32.3128 25.6621 32.5171 25.6318 32.7223 25.6351L33.3271 25.6799C33.5182 25.7035 33.7061 25.7486 33.8871 25.8143L33.7975 26.5759Z" fill="#727272"/>
<path d="M35.1639 29.5551H36.1271V30.5183H35.1639V29.5551Z" fill="#727272"/>
<path d="M37.2695 25.7023H38.5463L39.2631 25.7695C39.4979 25.8065 39.725 25.8822 39.9351 25.9935L40.2263 26.1951C40.2988 26.2837 40.3591 26.3817 40.4055 26.4863C40.4655 26.5813 40.5037 26.6884 40.5175 26.7999C40.5433 26.9178 40.5583 27.0377 40.5623 27.1583C40.5606 27.4056 40.5072 27.6498 40.4055 27.8751C40.3095 28.0612 40.1715 28.2223 40.0023 28.3455C39.8275 28.4675 39.6291 28.5514 39.4199 28.5919C39.1791 28.6574 38.9301 28.6876 38.6807 28.6815H38.2551V30.5183H37.2695V25.7023ZM38.2551 27.9199H38.9719C39.0781 27.8985 39.1778 27.8524 39.2631 27.7855C39.3459 27.7361 39.4152 27.6668 39.4647 27.5839C39.5546 27.3535 39.5546 27.0976 39.4647 26.8671L39.2631 26.6431L38.9495 26.5311C38.8341 26.4926 38.7123 26.4774 38.5911 26.4863H38.2551V27.9199Z" fill="#727272"/>
</svg>
