<svg width="26" height="25" viewBox="0 0 26 25" fill="none" xmlns="http://www.w3.org/2000/svg">
<path d="M11.237 9.75553C11.685 10.1795 12.237 10.2995 12.765 10.2595H13.141C14.397 10.2435 15.253 9.25954 15.101 8.00353C14.989 7.03553 14.885 6.05953 14.781 5.09153C14.5943 3.4702 14.4157 1.8462 14.245 0.219532C14.229 0.0675324 14.165 0.0115325 14.013 0.0115325H11.709C11.541 0.00353253 11.493 0.0835327 11.477 0.243533C11.445 0.579533 11.405 0.915533 11.365 1.25153C11.109 3.53153 10.861 5.81153 10.605 8.09154C10.5647 8.39952 10.6013 8.7127 10.7116 9.00307C10.8219 9.29344 11.0024 9.55197 11.237 9.75553Z" fill="#D6D3D3"/>
<path d="M6.81298 10.2515H7.58898C8.54098 10.2515 9.18098 9.64353 9.27698 8.70753C9.43698 7.17153 9.62098 5.63553 9.78898 4.09953L10.221 0.267531C10.245 0.0755309 10.197 -0.00446937 9.98898 0.00353063C9.62898 0.0195306 9.26898 0.0115305 8.91698 0.0115305C8.56498 0.0115305 8.23698 0.0195306 7.89298 0.00353063C7.67698 -0.00446937 7.55698 0.0515305 7.50898 0.291531C7.40498 0.74753 7.26098 1.19553 7.13298 1.64353C6.52498 3.85953 5.89298 6.07553 5.30098 8.29953C5.04498 9.28353 5.79698 10.2275 6.81298 10.2515Z" fill="#D6D3D3"/>
<path d="M15.845 3.31555C16.053 5.15555 16.245 6.99555 16.461 8.83555C16.557 9.67555 17.229 10.2435 18.085 10.2515H18.797C19.941 10.2515 20.701 9.29955 20.397 8.19555C19.677 5.53155 18.925 2.88355 18.197 0.219546C18.149 0.0595456 18.069 0.00354587 17.901 0.00354587C17.541 0.0195459 17.181 0.0115457 16.821 0.0115457C16.461 0.0115457 16.141 0.0275459 15.805 0.00354587C15.469 -0.0204541 15.469 0.0755461 15.501 0.347546C15.629 1.33155 15.733 2.32355 15.845 3.31555Z" fill="#D6D3D3"/>
<path d="M3.83699 8.82798C4.16499 7.65198 4.48499 6.48397 4.81299 5.31597C5.27699 3.64664 5.74365 1.97731 6.21299 0.307975C6.28499 0.0599753 6.22099 -0.00402498 5.98099 0.00397502C5.50899 0.019975 5.04499 0.0039749 4.57299 0.0119749C4.10099 0.0199749 3.57299 0.275975 3.34099 0.803975C2.26899 3.19864 1.20499 5.59331 0.148987 7.98798C-0.283013 8.97998 0.260987 9.97997 1.30899 10.22C1.52499 10.268 1.73299 10.244 1.90899 10.26C3.04499 10.26 3.54099 9.87598 3.83699 8.82798Z" fill="#D6D3D3"/>
<path d="M25.525 7.87554C25.325 7.41154 25.117 6.94754 24.909 6.48354C24.0823 4.63821 23.261 2.79021 22.445 0.939544C22.173 0.299544 21.709 -0.00445627 21.021 0.0115437H20.453C20.189 0.0115437 19.917 0.0195437 19.645 0.0115437C19.373 0.00354373 19.445 0.0595436 19.493 0.219544C19.597 0.579544 19.693 0.947544 19.797 1.31554L21.909 8.94754C22.101 9.63554 22.509 10.0915 23.221 10.2275C23.478 10.2637 23.7382 10.2718 23.997 10.2515C25.333 10.2435 26.069 9.10754 25.525 7.87554Z" fill="#D6D3D3"/>
<path d="M23.733 11.8036C23.733 11.6036 23.693 11.4996 23.453 11.4996C22.597 11.4996 21.893 11.1476 21.333 10.5076C21.221 10.3796 21.157 10.3556 21.045 10.4996C20.8368 10.7561 20.5815 10.9706 20.293 11.1316C19.421 11.6356 18.477 11.5556 17.549 11.4516C16.781 11.3716 16.189 10.9236 15.717 10.3156C13.845 11.9956 11.853 11.9956 10.005 10.3156C9.53299 10.9236 8.93299 11.3316 8.17299 11.4676C7.73299 11.5476 7.29299 11.4996 6.86099 11.5076C6.45043 11.5145 6.04348 11.4298 5.66981 11.2596C5.29614 11.0894 4.96516 10.8379 4.70099 10.5236C4.55699 10.3636 4.50099 10.3796 4.36499 10.5236C3.82099 11.1476 3.13299 11.4916 2.29299 11.4996C2.06099 11.4996 1.98899 11.5716 1.98899 11.8036C1.99966 15.7076 2.00232 19.6116 1.99699 23.5156C1.99699 24.0836 2.22899 24.3156 2.79699 24.3156H9.72499V15.7236C9.72499 15.5644 9.78821 15.4118 9.90073 15.2993C10.0132 15.1868 10.1659 15.1236 10.325 15.1236H15.389C15.4685 15.1225 15.5473 15.1372 15.6211 15.1669C15.6948 15.1966 15.7619 15.2406 15.8184 15.2964C15.875 15.3523 15.9199 15.4188 15.9506 15.4921C15.9812 15.5654 15.997 15.6441 15.997 15.7236V24.3156H22.837C23.525 24.3156 23.725 24.1156 23.725 23.4276V15.3396C23.725 14.1636 23.725 12.9876 23.733 11.8036Z" fill="#D6D3D3"/>
</svg>
