<svg width="24" height="25" viewBox="0 0 24 25" fill="none" xmlns="http://www.w3.org/2000/svg">
<path d="M9.50684 17.4727C9.50693 15.923 9.96612 14.4074 10.8274 13.114C11.6887 11.8207 12.9142 10.8065 14.3517 10.1974C15.7893 9.58831 17.3757 9.41106 18.914 9.68766C20.4522 9.96427 21.8747 10.6826 23.0049 11.7534V2.37167C23.0049 1.74266 22.7528 1.13942 22.3041 0.694645C21.8554 0.249871 21.2468 0 20.6123 0L2.39259 0C1.75804 0 1.14947 0.249871 0.700773 0.694645C0.252076 1.13942 0 1.74266 0 2.37167L0 20.432C0 21.061 0.252076 21.6643 0.700773 22.109C1.14947 22.5538 1.75804 22.8037 2.39259 22.8037H11.603C10.2525 21.3514 9.50406 19.4478 9.50684 17.4727ZM1.8315 4.29209C1.8315 4.16127 1.88392 4.03582 1.97723 3.94332C2.07054 3.85083 2.1971 3.79886 2.32907 3.79886H18.0079C18.1399 3.79886 18.2665 3.85083 18.3598 3.94332C18.4531 4.03582 18.5055 4.16127 18.5055 4.29209V5.04766C18.5028 5.17763 18.4495 5.30153 18.3568 5.39345C18.264 5.48538 18.1391 5.5382 18.0079 5.54088H2.32907C2.19795 5.5382 2.07296 5.48538 1.98022 5.39345C1.88749 5.30153 1.8342 5.17763 1.8315 5.04766V4.29209ZM1.8315 7.52427C1.8315 7.39346 1.88392 7.268 1.97723 7.17551C2.07054 7.08301 2.1971 7.03104 2.32907 7.03104H13.5615C13.6935 7.03104 13.8201 7.08301 13.9134 7.17551C14.0067 7.268 14.0591 7.39346 14.0591 7.52427V8.26935C14.0591 8.40016 14.0067 8.52561 13.9134 8.61811C13.8201 8.71061 13.6935 8.76257 13.5615 8.76257H2.32907C2.1971 8.76257 2.07054 8.71061 1.97723 8.61811C1.88392 8.52561 1.8315 8.40016 1.8315 8.26935V7.52427ZM2.32907 11.9948C2.1971 11.9948 2.07054 11.9428 1.97723 11.8503C1.88392 11.7578 1.8315 11.6323 1.8315 11.5015V10.7564C1.8315 10.6256 1.88392 10.5002 1.97723 10.4077C2.07054 10.3152 2.1971 10.2632 2.32907 10.2632H9.99382C10.1258 10.2632 10.2523 10.3152 10.3457 10.4077C10.439 10.5002 10.4914 10.6256 10.4914 10.7564V11.5015C10.4914 11.6323 10.439 11.7578 10.3457 11.8503C10.2523 11.9428 10.1258 11.9948 9.99382 11.9948H2.32907Z" fill="#D6D3D3"/>
<path d="M17.4045 10.9348C16.1001 10.9348 14.8249 11.3183 13.7403 12.0366C12.6556 12.755 11.8103 13.7761 11.3111 14.9707C10.8119 16.1654 10.6813 17.4799 10.9358 18.7481C11.1902 20.0163 11.8184 21.1813 12.7408 22.0956C13.6632 23.0099 14.8384 23.6326 16.1178 23.8848C17.3972 24.1371 18.7233 24.0076 19.9285 23.5128C21.1337 23.018 22.1638 22.18 22.8885 21.1049C23.6132 20.0297 24 18.7657 24 17.4726C24.0014 16.6137 23.8318 15.7629 23.5008 14.9691C23.1699 14.1753 22.6841 13.454 22.0714 12.8466C21.4586 12.2393 20.731 11.7577 19.9302 11.4297C19.1293 11.1016 18.271 10.9334 17.4045 10.9348ZM20.2312 18.7319H17.0869C16.8557 18.7292 16.6349 18.6362 16.4724 18.4731C16.3099 18.3101 16.2188 18.0901 16.2188 17.8609V14.3244C16.2053 14.2027 16.2178 14.0796 16.2555 13.963C16.2932 13.8464 16.3553 13.739 16.4377 13.6478C16.5201 13.5566 16.621 13.4836 16.7338 13.4337C16.8466 13.3838 16.9687 13.3579 17.0922 13.3579C17.2157 13.3579 17.3379 13.3838 17.4506 13.4337C17.5634 13.4836 17.6643 13.5566 17.7467 13.6478C17.8291 13.739 17.8912 13.8464 17.9289 13.963C17.9667 14.0796 17.9792 14.2027 17.9656 14.3244V16.9899H20.2312C20.3466 16.9899 20.4608 17.0124 20.5674 17.0562C20.674 17.1 20.7709 17.1641 20.8525 17.245C20.9341 17.3259 20.9988 17.4219 21.043 17.5276C21.0871 17.6333 21.1099 17.7465 21.1099 17.8609C21.1099 17.9753 21.0871 18.0886 21.043 18.1942C20.9988 18.2999 20.9341 18.3959 20.8525 18.4768C20.7709 18.5577 20.674 18.6219 20.5674 18.6656C20.4608 18.7094 20.3466 18.7319 20.2312 18.7319Z" fill="#D6D3D3"/>
</svg>
