<svg width="46" height="47" viewBox="0 0 46 47" fill="none" xmlns="http://www.w3.org/2000/svg">
<path d="M43.2308 33.088C43.2084 33.2125 43.1412 33.324 43.0425 33.4005C42.9438 33.477 42.8206 33.5131 42.6972 33.5016H42.6512C42.2924 33.417 42.1268 32.9282 42.09 32.8342C40.5536 29.281 35.5672 27.8522 32.7796 30.2304C32.2 30.7192 31.3996 31.6122 31.0408 32.7778C30.682 33.9434 30.9396 34.5356 30.4244 35.0432C29.9092 35.5508 29.394 35.297 27.692 35.25C27.3884 35.2406 26.036 35.2782 23.3496 35.3534C22.0064 35.391 21.114 35.4286 20.6264 34.8082C20.4528 34.5831 20.3444 34.3128 20.3136 34.028C20.2584 33.7178 19.6236 30.832 16.8452 29.516C14.0668 28.2 11.6288 29.4972 11.2332 29.7134C10.8376 29.9296 8.5376 31.1516 8.2248 33.182C8.0868 34.075 8.3628 34.8834 7.912 35.1748C7.4612 35.4662 6.5688 35.344 6.4952 34.7894C6.026 31.3208 7.3048 29.0554 10.3684 27.6454C10.4328 27.6172 10.488 27.448 10.4696 27.3634C10.3776 26.8746 10.0556 26.3106 10.212 25.9534C10.3684 25.5962 10.9848 25.2014 11.408 25.192C14.5452 25.1262 17.6824 25.1168 20.8196 25.192C21.298 25.2014 21.988 25.6526 22.1536 26.0756C22.3192 26.4986 22.034 27.1942 21.7212 27.6078C20.194 29.6006 20.2768 29.5066 21.666 31.7062C22.3652 32.806 23.184 32.806 24.1776 32.7496L24.3248 32.7214C24.3031 32.6922 24.2846 32.6607 24.2696 32.6274C24.104 32.148 23.8004 31.678 23.7912 31.208C23.7452 29.0554 23.782 26.9028 23.7544 24.7502C23.7556 24.6976 23.7465 24.6452 23.7277 24.5962C23.7088 24.5472 23.6805 24.5026 23.6445 24.4649C23.6085 24.4273 23.5655 24.3974 23.518 24.3769C23.4705 24.3565 23.4195 24.346 23.368 24.346C21.85 24.3178 20.3228 24.3272 18.8048 24.3272C16.8268 24.3272 15.7228 23.0582 15.8976 20.9244C16.0371 19.1443 16.0341 17.3554 15.8884 15.5758C15.7596 14.053 16.2748 12.8592 17.6088 12.4174C18.9428 11.9756 20.2952 11.8346 21.3808 12.9814C21.7488 13.3668 22.034 13.6582 22.1536 13.818C23.5152 15.5946 23.7636 16.45 24.6284 16.826C25.0332 17.0046 25.4104 16.9858 26.1556 16.9294C27.8208 16.7978 28.3912 16.168 30.6636 15.6228C31.7584 15.3502 32.1724 15.3784 32.5312 15.5946C32.89 15.8108 33.3316 16.7696 33.2304 17.2772C33.1292 17.7848 32.43 18.3206 31.9884 18.8376C31.9148 18.9316 31.74 19.0538 31.7584 19.1008C32.614 21.6482 33.4696 24.1956 34.3528 26.7242C34.408 26.8934 34.684 27.0908 34.8588 27.0908C36.9472 27.0626 38.87 27.4198 40.4524 28.5572C41.0964 29.0178 41.5196 29.4596 42.1544 30.2774C43.2768 31.6968 43.286 32.4488 43.286 32.665C43.2791 32.8073 43.2607 32.9488 43.2308 33.088ZM29.1548 20.3134L28.8328 20.1254C28.2532 19.7588 27.922 19.317 27.8484 19.317C25.438 19.2418 22.862 19.8152 21.1232 17.343C21.0588 17.4088 20.9392 17.4746 20.9392 17.5404C20.93 18.5086 20.93 19.4768 20.9668 20.445C20.9668 20.5672 21.1692 20.774 21.2796 20.774C22.4296 20.8022 23.5796 20.7928 24.7204 20.7928C26.4132 20.7928 27.1124 21.4884 27.1124 23.2368C27.1216 25.7278 27.1492 28.2188 27.1032 30.7098C27.0848 31.3302 26.8364 31.9506 26.6984 32.571C26.6892 32.5992 26.7536 32.6744 26.7904 32.6744C27.5632 32.806 28.2808 32.7308 28.75 32.289C29.0163 32.0202 29.1905 31.6707 29.2468 31.2926C29.6424 29.328 29.1824 20.7552 29.1548 20.3134Z" fill="#727272"/>
<path d="M19.0256 10.9134C20.5753 10.9134 21.8316 9.6298 21.8316 8.0464C21.8316 6.463 20.5753 5.1794 19.0256 5.1794C17.4759 5.1794 16.2196 6.463 16.2196 8.0464C16.2196 9.6298 17.4759 10.9134 19.0256 10.9134Z" fill="#727272"/>
<path d="M14.2968 12.0978H4.2228C3.61307 12.0978 3.1188 12.6028 3.1188 13.2258V23.5207C3.1188 24.1437 3.61307 24.6487 4.2228 24.6487H14.2968C14.9065 24.6487 15.4008 24.1437 15.4008 23.5207V13.2258C15.4008 12.6028 14.9065 12.0978 14.2968 12.0978Z" fill="#727272"/>
<path d="M13.9748 29.6946C13.0413 29.6946 12.1289 29.9774 11.3527 30.5073C10.5766 31.0372 9.97167 31.7903 9.61446 32.6714C9.25724 33.5526 9.16378 34.5221 9.34588 35.4576C9.52799 36.393 9.97749 37.2522 10.6375 37.9266C11.2976 38.601 12.1385 39.0603 13.054 39.2463C13.9696 39.4324 14.9185 39.3369 15.7809 38.9719C16.6433 38.6069 17.3804 37.9889 17.899 37.1959C18.4176 36.4029 18.6944 35.4705 18.6944 34.5168C18.6944 33.2379 18.1972 32.0113 17.3121 31.107C16.427 30.2026 15.2265 29.6946 13.9748 29.6946ZM13.9748 36.5848C13.5719 36.5867 13.1775 36.4662 12.8418 36.2386C12.506 36.0111 12.244 35.6867 12.0889 35.3067C11.9339 34.9268 11.8929 34.5083 11.971 34.1044C12.0492 33.7006 12.243 33.3296 12.5279 33.0385C12.8128 32.7474 13.176 32.5493 13.5712 32.4695C13.9665 32.3896 14.376 32.4316 14.7479 32.5899C15.1198 32.7483 15.4373 33.0161 15.66 33.3591C15.8827 33.7022 16.0006 34.1051 15.9988 34.5168C16 34.7887 15.9485 35.0582 15.8472 35.3097C15.7459 35.5611 15.5969 35.7896 15.4087 35.9819C15.2205 36.1741 14.9969 36.3264 14.7508 36.4299C14.5047 36.5334 14.2409 36.586 13.9748 36.5848Z" fill="#727272"/>
<path d="M36.4412 29.6946C35.5077 29.6946 34.5953 29.9774 33.8191 30.5073C33.043 31.0372 32.4381 31.7903 32.0808 32.6714C31.7236 33.5526 31.6302 34.5221 31.8123 35.4576C31.9944 36.393 32.4439 37.2522 33.1039 37.9266C33.764 38.601 34.6049 39.0603 35.5204 39.2463C36.436 39.4324 37.3849 39.3369 38.2473 38.9719C39.1097 38.6069 39.8468 37.9889 40.3654 37.1959C40.884 36.4029 41.1608 35.4705 41.1608 34.5168C41.1608 33.2379 40.6635 32.0113 39.7785 31.107C38.8934 30.2026 37.6929 29.6946 36.4412 29.6946ZM36.4412 36.5848C36.0383 36.5867 35.6439 36.4662 35.3082 36.2386C34.9724 36.0111 34.7104 35.6867 34.5553 35.3067C34.4003 34.9268 34.3593 34.5083 34.4374 34.1044C34.5156 33.7006 34.7094 33.3296 34.9943 33.0385C35.2792 32.7474 35.6423 32.5493 36.0376 32.4695C36.4329 32.3896 36.8424 32.4316 37.2143 32.5899C37.5862 32.7483 37.9037 33.0161 38.1264 33.3591C38.3491 33.7022 38.467 34.1051 38.4652 34.5168C38.4664 34.7887 38.4149 35.0582 38.3136 35.3097C38.2123 35.5611 38.0633 35.7896 37.8751 35.9819C37.6869 36.1741 37.4633 36.3264 37.2172 36.4299C36.9711 36.5334 36.7073 36.586 36.4412 36.5848Z" fill="#727272"/>
</svg>
