<svg width="54" height="54" viewBox="0 0 54 54" fill="none" xmlns="http://www.w3.org/2000/svg">
<path d="M15.3144 22.9824H39.096L38.988 22.7016L34.452 12.3768C34.0956 11.5452 34.452 10.692 35.3268 10.3248C36.2016 9.9576 37.1952 10.1952 37.7136 10.8648C37.7964 10.9786 37.8653 11.1018 37.9188 11.232C39.5928 15.0552 41.2776 18.8676 42.9408 22.6908C43.0272 22.9068 43.146 22.9932 43.4268 22.9932H47.1096C48.4488 23.004 49.4964 23.7276 49.7556 24.8076C49.7865 24.9823 49.801 25.1594 49.7988 25.3368C49.8096 26.4384 49.8096 27.5508 49.7988 28.6524C49.7988 30.0456 48.6756 30.996 47.0448 31.0068C46.6236 31.0068 46.1916 31.0176 45.7596 30.996C45.5328 30.996 45.4572 31.0608 45.414 31.2444C44.9172 33.426 44.4096 35.5968 43.9128 37.7676C43.47 39.7008 43.038 41.6448 42.5844 43.578C42.2064 45.1548 40.5648 46.2888 38.6748 46.2888H15.7788C13.824 46.2888 12.204 45.144 11.8152 43.5024C11.3508 41.4936 10.8972 39.4848 10.4328 37.4652C9.9684 35.4456 9.4932 33.4044 9.0288 31.374C8.9424 31.0068 8.9424 31.0068 8.5104 31.0068H7.2792C5.7888 30.9852 4.644 30.0564 4.6224 28.7928C4.6008 27.5292 4.59 26.406 4.6224 25.2072C4.6548 24.0084 5.778 23.004 7.3008 22.9932C8.5248 22.9716 9.7452 22.9716 10.962 22.9932C11.2536 22.9932 11.3724 22.9068 11.4696 22.68L16.47 11.2644C16.9668 10.1304 18.4896 9.7848 19.5048 10.5732C20.0664 11.016 20.25 11.6856 19.9692 12.3336L18.0144 16.8048L15.4224 22.7124L15.3144 22.9824ZM33.5556 37.5084V41.2884C33.5664 42.0444 34.1712 42.606 34.992 42.6168C35.8128 42.6276 36.45 42.0552 36.4608 41.2776V33.7176C36.4608 33.1884 36.1908 32.778 35.6292 32.5404C34.6572 32.1408 33.5664 32.7348 33.5664 33.6744C33.5448 34.9488 33.5556 36.2232 33.5556 37.5084ZM17.9496 37.5192V41.3316C17.9496 42.066 18.576 42.6168 19.386 42.6276C20.196 42.6384 20.8332 42.066 20.8332 41.3316C20.8476 38.8044 20.8476 36.27 20.8332 33.7284C20.8319 33.521 20.78 33.3171 20.682 33.1344C20.4228 32.616 19.7316 32.3352 19.1052 32.454C18.4788 32.5728 17.9604 33.0588 17.9496 33.642C17.9388 34.938 17.9496 36.2232 17.9496 37.5192ZM28.3716 37.5084C28.3716 38.772 28.3608 40.0464 28.3824 41.31C28.3892 41.5593 28.4639 41.802 28.5984 42.012C28.9116 42.5088 29.6028 42.7248 30.2184 42.5628C30.834 42.4008 31.266 41.9364 31.266 41.3316V33.75C31.266 32.9724 30.6504 32.4108 29.808 32.4216C28.9656 32.4324 28.3716 32.994 28.3716 33.75V37.5084ZM26.0388 37.53C26.0388 36.2448 26.0496 34.9596 26.0388 33.6744C26.028 33.0588 25.488 32.5404 24.7968 32.4432C24.1056 32.346 23.4576 32.6916 23.2416 33.2532C23.172 33.4283 23.1389 33.6157 23.1444 33.804C23.1336 36.2988 23.1444 38.7828 23.1444 41.2776C23.1444 42.0552 23.76 42.6276 24.5916 42.6276C25.4232 42.6276 26.0388 42.0552 26.0388 41.2776V37.53Z" fill="#4F8640"/>
<path d="M29.8944 15.3144H31.2228C31.6008 15.3144 31.9248 15.4008 32.0976 15.7032C32.2704 16.0056 32.1624 16.2864 31.914 16.5564L27.9396 20.8656C27.486 21.3516 26.9244 21.3516 26.4708 20.8656L22.4856 16.5456C22.248 16.2972 22.1292 16.038 22.302 15.7248C22.4748 15.4116 22.7988 15.3036 23.1984 15.3144C23.598 15.3252 23.8356 15.3036 24.1488 15.3252C24.462 15.3468 24.516 15.2496 24.5052 15.0012V7.6248C24.516 7.2468 24.732 7.0632 25.1748 7.0632C26.1576 7.0524 27.1296 7.0632 28.1124 7.0632H29.16C29.7 7.0632 29.8944 7.2252 29.8944 7.6896C29.9052 10.0008 29.8944 12.3228 29.8944 14.634V15.3144Z" fill="#4F8640"/>
</svg>
