<svg width="42" height="42" viewBox="0 0 42 42" fill="none" xmlns="http://www.w3.org/2000/svg">
<path d="M21.84 31.122C21.882 32.8692 22.3188 34.4568 23.2344 35.9604L22.7304 35.9856H10.9452C9.5424 35.9856 8.7696 35.2044 8.7696 33.81C8.7584 24.9396 8.7584 16.0664 8.7696 7.1904C8.7696 5.8296 9.5676 5.0232 10.92 5.0232C17.3376 5.0232 23.7468 5.0148 30.1644 5.0316C30.4065 5.04255 30.6363 5.14106 30.8112 5.3088C32.0936 6.5688 33.3676 7.8428 34.6332 9.1308C34.776 9.2736 34.902 9.5004 34.902 9.6936C34.9188 13.9524 34.9104 18.2196 34.9104 22.4784C34.9104 22.5708 34.8936 22.6716 34.8936 22.7472C34.1292 22.5372 33.39 22.2768 32.634 22.134C29.8452 21.6384 27.3588 22.344 25.1412 24.108C24.9185 24.2782 24.6485 24.3751 24.3684 24.3852C20.6388 24.402 16.9064 24.402 13.1712 24.3852C12.768 24.3852 12.6252 24.4944 12.6672 24.8976C12.7092 25.3008 12.5328 25.9728 12.7596 26.1828C12.9864 26.3928 13.6248 26.292 14.0784 26.3004H23.1084C22.764 27.2412 22.4448 28.1568 22.0836 29.0556C22.0416 29.1564 21.7896 29.2236 21.63 29.2236C18.8412 29.232 16.044 29.2404 13.2468 29.2236C12.8016 29.2152 12.6504 29.316 12.6588 29.7948C12.6924 31.122 12.6672 31.122 13.9944 31.122H21.84ZM21.84 19.5552H14.0028C12.6672 19.5552 12.684 19.5552 12.6672 20.9076C12.6588 21.3276 12.7512 21.4704 13.2132 21.4704C18.6564 21.4536 24.0996 21.448 29.5428 21.4536C30.0132 21.4536 30.6684 21.5964 30.9036 21.3444C31.1388 21.0924 30.9624 20.454 31.0044 19.9836C31.0464 19.5132 30.8868 19.5468 30.5508 19.5468L21.84 19.5552ZM21.8484 16.6236H29.6436C31.0044 16.6236 30.9876 16.6236 31.0128 15.2544C31.0128 14.8344 30.8952 14.7252 30.4752 14.7252C24.9984 14.742 19.53 14.7336 14.0616 14.7336C12.6588 14.7336 12.6756 14.7336 12.6672 16.1196C12.6588 16.5228 12.7764 16.6404 13.1796 16.632L21.8484 16.6236ZM27.1152 9.8952H14.0868C13.6332 9.8952 13.0032 9.7608 12.768 9.996C12.5328 10.2312 12.7092 10.8696 12.6672 11.3232C12.6252 11.7768 12.7764 11.8104 13.1628 11.8104C17.6568 11.7936 22.1508 11.802 26.6448 11.802H27.1152V9.8952ZM33.6756 10.3404L29.5848 6.2328C29.5848 7.4592 29.5764 8.7528 29.6016 10.0464C29.6016 10.1472 29.8284 10.3236 29.9628 10.3236C30.912 10.3488 31.8528 10.3404 32.802 10.3404H33.6756Z" fill="#4F8640"/>
<path d="M31.0044 38.9004C26.7372 38.892 23.2596 35.3892 23.268 31.1136C23.2764 26.838 26.7876 23.3688 31.0548 23.3856C35.322 23.4024 38.7828 26.8968 38.7744 31.1472C38.766 35.3976 35.28 38.9088 31.0044 38.9004ZM29.5764 35.532L36.6324 28.476L35.3304 27.1908L29.5596 32.97L26.2332 29.5848L24.9228 30.8868L29.5764 35.532Z" fill="#4F8640"/>
</svg>
