<svg width="181" height="187" viewBox="0 0 181 187" fill="none" xmlns="http://www.w3.org/2000/svg">
<g clip-path="url(#clip0_4427_3293)">
<path d="M180.978 89.554C179.498 156.024 117.011 194.528 61.7141 175.663C61.2363 175.504 60.8039 175.276 60.417 175.002L54.7963 183.442C51.383 188.551 43.737 188.072 40.9836 182.598L27.057 154.974C24.258 149.386 28.6044 142.885 34.8167 143.341L65.5826 145.622C71.7039 146.078 75.0718 152.99 71.6584 158.099L66.8342 165.353C114.69 180.636 168.098 147.219 169.531 89.9189C170.032 69.7545 162.227 50.0691 147.913 35.8582C135.739 23.7459 121.858 16.5378 107.726 13.3899C105.587 12.9109 103.949 11.1545 103.539 8.9875C103.539 8.96469 103.517 8.91907 103.517 8.87345C102.766 4.85881 106.316 1.36882 110.298 2.28123C125.84 5.77123 141.109 13.5724 154.672 26.3691C171.921 42.6785 181.501 65.7855 180.978 89.554Z" fill="#AF2417"/>
<path d="M71.8362 15.2957C72.2149 17.9139 74.6393 19.7286 77.2512 19.349C79.8631 18.9694 81.6735 16.5392 81.2948 13.921L79.8744 4.10114C79.4956 1.48297 77.0713 -0.331736 74.4594 0.0478814C71.8475 0.427498 70.0371 2.85769 70.4158 5.47586L71.8362 15.2957Z" fill="#AF2417"/>
<path d="M47.8667 26.5609C49.1652 28.8642 52.0804 29.6762 54.3782 28.3747C56.6759 27.0732 57.486 24.1509 56.1876 21.8477L51.3177 13.209C50.0193 10.9057 47.104 10.0937 44.8063 11.3952C42.5086 12.6967 41.6984 15.6189 42.9969 17.9222L47.8667 26.5609Z" fill="#AF2417"/>
<path d="M28.7679 45.309C30.6826 47.1298 33.7073 47.0499 35.5236 45.1305C37.34 43.2112 37.2603 40.1793 35.3456 38.3585L28.164 31.5296C26.2493 29.7088 23.2246 29.7887 21.4082 31.7081C19.5919 33.6274 19.6716 36.6593 21.5863 38.4801L28.7679 45.309Z" fill="#AF2417"/>
<path d="M17.9164 69.491C20.3677 70.4713 23.1477 69.2741 24.1257 66.8169C25.1037 64.3596 23.9093 61.573 21.458 60.5926L12.2639 56.9158C9.81253 55.9354 7.03253 57.1327 6.05455 59.5899C5.07656 62.0471 6.27095 64.8338 8.72228 65.8141L17.9164 69.491Z" fill="#AF2417"/>
<path d="M14.3709 95.8705C17.0045 96.0426 19.2787 94.0421 19.4504 91.4021C19.622 88.7622 17.6263 86.4826 14.9926 86.3104L5.1148 85.6649C2.48117 85.4928 0.207013 87.4934 0.035319 90.1334C-0.136375 92.7733 1.85941 95.0529 4.49304 95.225L14.3709 95.8705Z" fill="#AF2417"/>
<path d="M20.5248 121.888C23.0718 121.195 24.576 118.564 23.8844 116.011C23.1929 113.457 20.5676 111.95 18.0205 112.643L8.4676 115.243C5.92059 115.936 4.41643 118.568 5.10796 121.121C5.79949 123.674 8.42484 125.182 10.9719 124.488L20.5248 121.888Z" fill="#AF2417"/>
<path d="M141.132 101.735C139.539 99.6817 138.492 98.5868 136.899 97.4463C132.962 94.595 128.161 93.7054 122.95 93.7738C122.517 93.7738 121.835 93.272 121.698 92.8614C119.491 86.5429 117.374 80.1788 115.235 73.8147C115.19 73.7007 115.622 73.3813 115.804 73.1532C116.897 71.853 118.649 70.53 118.899 69.2526C119.149 67.9752 118.057 65.5801 117.147 65.0555C116.259 64.5081 115.213 64.4396 112.482 65.1239C106.816 66.4926 105.405 68.0665 101.241 68.3858C99.3746 68.5227 98.4416 68.5683 97.4404 68.1349C95.2786 67.1997 94.6642 65.0555 91.2735 60.6075C90.9777 60.1969 90.2723 59.4898 89.3393 58.5089C86.6313 55.6348 83.2635 55.9998 79.9411 57.0947C76.6188 58.1896 75.3217 61.1777 75.663 64.9871C76.0271 69.4351 76.0271 73.9059 75.6858 78.354C75.2534 83.6916 78.0069 86.8623 82.9221 86.8623C86.6996 86.8623 90.5226 86.8395 94.3001 86.9079C94.4366 86.9079 94.5504 86.9307 94.6642 86.9763C94.7779 87.022 94.8917 87.1132 94.9827 87.2044C95.0738 87.2957 95.142 87.4097 95.1875 87.5238C95.2331 87.6378 95.2558 87.7747 95.2558 87.9116C95.3241 93.2948 95.2331 98.6781 95.3468 104.061C95.3696 105.225 96.1205 106.411 96.5301 107.62C96.5756 107.711 96.6212 107.779 96.6667 107.848L96.3026 107.916C93.8222 108.053 91.7969 108.053 90.0447 105.316C86.5858 99.8186 86.381 100.047 90.1813 95.074C90.955 94.0476 91.6604 92.2912 91.2508 91.2419C90.8412 90.1926 89.1117 89.0521 87.9284 89.0293C80.1004 88.8468 72.2952 88.8696 64.4672 89.0293C63.4204 89.0521 61.873 90.0329 61.4861 90.9225C61.0993 91.8121 61.8957 93.2264 62.1233 94.4354C62.1688 94.6406 62.0323 95.074 61.873 95.1425C54.227 98.6553 51.0412 104.335 52.2245 113.003C52.4066 114.394 54.6366 114.691 55.7517 113.961C56.8667 113.231 56.184 111.224 56.5254 108.988C57.2991 103.924 63.0335 100.868 64.012 100.32C64.9905 99.773 71.0663 96.5339 78.0069 99.8186C84.9247 103.103 86.5176 110.311 86.6541 111.087C86.7224 111.794 86.9954 112.478 87.4278 113.026C88.6339 114.577 90.8639 114.486 94.209 114.394C100.899 114.212 104.267 114.121 105.041 114.144C109.273 114.258 110.571 114.896 111.845 113.619C113.119 112.342 112.482 110.882 113.392 107.962C114.28 105.042 116.282 102.807 117.716 101.598C124.656 95.6443 137.081 99.2255 140.927 108.099C141.018 108.327 141.427 109.559 142.315 109.764H142.429C142.747 109.787 143.043 109.696 143.293 109.513C143.544 109.331 143.703 109.034 143.771 108.737C143.84 108.395 143.885 108.03 143.908 107.688C143.908 107.141 143.885 105.27 141.086 101.712L141.132 101.735ZM108.955 104.267C108.818 105.202 108.386 106.091 107.726 106.753C106.565 107.848 104.768 108.053 102.834 107.711C102.742 107.711 102.583 107.529 102.606 107.46C102.947 105.909 103.562 104.358 103.607 102.807C103.721 96.5795 103.653 90.3523 103.63 84.125C103.63 79.7454 101.878 78.0118 97.6679 78.0118C94.8234 78.0118 91.9562 78.0346 89.089 77.9662C88.8159 77.9662 88.3153 77.4416 88.3153 77.145C88.2243 74.7271 88.2243 72.3092 88.247 69.8913C88.247 69.7316 88.5428 69.572 88.7021 69.3895C93.0257 75.5711 99.4656 74.1341 105.473 74.3165C105.655 74.3165 106.474 75.4114 107.931 76.3467L108.727 76.8257C108.796 77.9206 109.933 99.3624 108.955 104.267Z" fill="#727272"/>
<path d="M83.4914 53.3308C87.3599 53.3308 90.4775 50.1145 90.4775 46.1683C90.4775 42.2221 87.3372 39.0059 83.4914 39.0059C79.6457 39.0059 76.5054 42.2221 76.5054 46.1683C76.5054 50.1145 79.6457 53.3308 83.4914 53.3308Z" fill="#727272"/>
<path d="M70.9074 100.275C68.5863 100.275 66.3107 100.982 64.3765 102.305C62.4422 103.628 60.9404 105.521 60.0529 107.711C59.1654 109.924 58.9378 112.341 59.393 114.668C59.8481 116.995 60.9631 119.162 62.6015 120.85C64.24 122.538 66.3335 123.678 68.6318 124.157C70.9074 124.614 73.274 124.385 75.4358 123.473C77.5749 122.561 79.4181 121.009 80.7152 119.025C82.0123 117.04 82.6949 114.714 82.6949 112.319C82.6949 109.125 81.4661 106.046 79.2588 103.788C77.0515 101.529 74.0705 100.252 70.9302 100.252L70.9074 100.275ZM75.5724 114.303C75.322 114.942 74.958 115.512 74.4801 115.991C74.0022 116.47 73.4561 116.858 72.8417 117.109C72.2273 117.36 71.5673 117.497 70.9074 117.497C69.9062 117.497 68.9277 117.2 68.0857 116.63C67.2437 116.06 66.6066 115.261 66.2197 114.303C65.8329 113.345 65.7418 112.319 65.9239 111.292C66.1287 110.289 66.6066 109.353 67.312 108.623C68.0174 107.893 68.9277 107.392 69.9062 107.209C70.8847 107.004 71.9087 107.118 72.8417 107.506C73.7746 107.893 74.5483 108.578 75.1172 109.422C75.6634 110.289 75.9592 111.292 75.9592 112.319C75.9592 113.003 75.8227 113.664 75.5724 114.303Z" fill="#727272"/>
<path d="M126.909 100.275C124.588 100.275 122.313 100.982 120.378 102.305C118.444 103.628 116.942 105.521 116.055 107.711C115.167 109.924 114.94 112.341 115.395 114.668C115.85 116.995 116.965 119.162 118.603 120.85C120.242 122.538 122.335 123.678 124.634 124.157C126.909 124.614 129.276 124.385 131.438 123.473C133.577 122.561 135.42 121.009 136.717 119.025C138.014 117.04 138.697 114.714 138.697 112.319C138.697 109.125 137.468 106.046 135.261 103.788C133.053 101.529 130.072 100.252 126.932 100.252L126.909 100.275ZM131.574 114.303C131.324 114.942 130.96 115.512 130.482 115.991C130.004 116.47 129.458 116.858 128.844 117.109C128.229 117.36 127.569 117.497 126.909 117.497C125.908 117.497 124.93 117.2 124.088 116.63C123.246 116.06 122.609 115.261 122.222 114.303C121.835 113.345 121.744 112.319 121.926 111.292C122.131 110.289 122.609 109.353 123.314 108.623C124.019 107.893 124.93 107.392 125.908 107.209C126.887 107.004 127.911 107.118 128.844 107.506C129.777 107.893 130.55 108.578 131.119 109.422C131.665 110.289 131.961 111.292 131.961 112.319C131.961 113.003 131.847 113.664 131.574 114.303Z" fill="#727272"/>
<path d="M74.4572 84.8551V59.1249C74.4572 57.5738 73.2284 56.2964 71.7037 56.2964H46.604C45.0794 56.2964 43.8506 57.551 43.8506 59.1249V84.8551C43.8506 86.4062 45.0794 87.6835 46.604 87.6835H71.7037C73.2284 87.6835 74.4572 86.429 74.4572 84.8551ZM59.3701 84.3532C52.4523 84.3532 46.8544 78.7419 46.8544 71.8075C46.8544 64.8731 52.4523 59.2617 59.3701 59.2617C66.2878 59.2617 71.8858 64.8731 71.8858 71.8075C71.8858 78.7419 66.2878 84.3532 59.3701 84.3532Z" fill="#727272"/>
<path d="M65.0363 74.864C63.944 73.8375 62.8745 72.7883 61.7822 71.7618C62.7834 70.6897 63.8074 69.6176 64.8087 68.5683C66.3106 66.9716 63.9212 64.5537 62.3966 66.1504C61.3726 67.2453 60.3258 68.3174 59.3018 69.4123C58.2323 68.4087 57.1627 67.3822 56.116 66.3785C54.5231 64.873 52.1109 67.2681 53.7039 68.7964C54.7961 69.8229 55.8657 70.8722 56.9579 71.8987C55.9567 72.9707 54.9327 74.0428 53.9314 75.0921C52.4295 76.6888 54.8189 79.1067 56.3435 77.51C57.3675 76.4151 58.4143 75.343 59.4383 74.2481C60.5079 75.2518 61.5774 76.2783 62.6241 77.2819C64.2171 78.7874 66.6292 76.3923 65.0363 74.864Z" fill="#AF2417"/>
</g>
<defs>
<clipPath id="clip0_4427_3293">
<rect width="181" height="187" fill="white"/>
</clipPath>
</defs>
</svg>
