<svg width="35" height="35" viewBox="0 0 35 35" fill="none" xmlns="http://www.w3.org/2000/svg">
<g clip-path="url(#clip0_4089_3355)">
<path d="M27.1537 26.9773C27.1537 26.9773 27.1537 27.1537 27.1537 27.2418C27.1537 28.9169 27.1537 30.5038 27.1537 32.1788C27.1537 33.3249 26.6247 34.2066 25.5667 34.7355C25.2141 34.9118 24.8615 34.9118 24.5088 35C24.5088 35 24.4207 35 24.3325 35C17.1914 35 10.0504 35 2.82116 35C2.11587 35 1.5869 34.8237 1.05793 34.3829C0.352645 33.8539 0 33.1486 0 32.267C0 32.267 0 32.1788 0 32.0907C0 22.3929 0 12.6071 0 2.90932C0 2.29219 0.0881612 1.76322 0.440806 1.23426C0.969773 0.440806 1.76322 0 2.733 0C2.733 0 2.82116 0 2.90932 0C10.0504 0 17.1914 0 24.3325 0C24.9496 0 25.5667 0.176322 26.0076 0.528967C26.7128 1.05793 27.1537 1.76322 27.1537 2.64484C27.1537 3.79093 27.1537 4.93703 27.1537 6.08312C27.1537 8.46348 27.1537 10.7557 27.1537 13.136C27.1537 14.0176 27.1537 14.8992 27.1537 15.7809C27.1537 15.9572 27.1537 16.0453 26.9773 16.2217C25.3904 17.7204 23.8917 19.3073 22.3048 20.806C21.2468 21.864 20.2771 22.8338 19.2191 23.8917C18.4257 24.6851 17.8086 25.4786 17.2796 26.3602C16.8388 27.0655 16.398 27.7708 16.0453 28.5642C15.7809 29.0932 15.6045 29.534 15.5164 30.1511C15.4282 31.0327 15.5164 31.8262 16.2217 32.4433C16.6625 32.8841 17.1914 33.0605 17.8086 33.1486C18.602 33.1486 19.3955 32.9723 20.1008 32.6196C21.2468 32.0907 22.3929 31.3854 23.3627 30.5919C23.9798 30.063 24.597 29.534 25.2141 28.9169C25.8312 28.2997 26.3602 27.7708 26.9773 27.1537C26.9773 27.1537 26.9773 27.0655 27.1537 27.0655V26.9773ZM13.5768 11.6373C13.0479 11.6373 12.6071 11.6373 12.0781 11.6373C9.96222 11.6373 7.84635 11.6373 5.73048 11.6373C4.3199 11.6373 3.35013 13.136 4.05542 14.5466C4.40806 15.2519 5.02519 15.6045 5.81864 15.6045C7.22922 15.6045 8.6398 15.6045 9.96222 15.6045C13.7531 15.6045 17.4559 15.6045 21.2469 15.6045C21.5113 15.6045 21.7758 15.6045 21.9521 15.5164C23.0101 15.1637 23.4509 14.1058 23.1864 13.136C22.9219 12.2544 22.0403 11.7254 21.2469 11.7254C18.6902 11.7254 16.1335 11.7254 13.5768 11.7254V11.6373ZM10.7557 3.87909C9.16877 3.87909 7.58186 3.87909 5.99496 3.87909C5.73048 3.87909 5.37783 3.87909 5.11335 4.05542C3.87909 4.58438 3.52645 6.17128 4.40806 7.14106C4.84887 7.58186 5.37783 7.84635 5.99496 7.84635C9.0806 7.84635 12.1662 7.84635 15.2519 7.84635C15.4282 7.84635 15.6045 7.84635 15.7809 7.84635C16.5743 7.75819 17.1914 7.31738 17.3678 6.52393C17.6322 5.73048 17.3678 5.02519 16.8388 4.49622C16.4861 4.14358 15.9572 3.96725 15.4282 3.96725C13.8413 3.96725 12.2544 3.96725 10.6675 3.96725L10.7557 3.87909ZM9.60957 23.3627C10.8438 23.3627 12.0781 23.3627 13.3123 23.3627C13.5768 23.3627 13.7531 23.3627 14.0176 23.3627C15.4282 23.0101 16.0453 21.335 15.0756 20.1008C14.6348 19.6599 14.1058 19.4836 13.4887 19.4836C11.9899 19.4836 10.5793 19.4836 9.0806 19.4836C7.93451 19.4836 6.87657 19.4836 5.73048 19.4836C5.64232 19.4836 5.46599 19.4836 5.37783 19.4836C4.40806 19.66 3.70277 20.4534 3.70277 21.4232C3.70277 22.5693 4.67254 23.3627 5.64232 23.3627C6.96474 23.3627 8.28715 23.3627 9.60957 23.3627Z" fill="#727272"/>
<path d="M35.0002 15.8689C35.0002 16.3979 34.7357 16.8387 34.383 17.2795C33.1488 18.4256 32.0027 19.6599 30.7684 20.806C28.917 22.5692 27.0656 24.4206 25.3024 26.1838C24.5971 26.8891 23.8918 27.5062 23.2747 28.2115C22.9221 28.5642 22.5694 28.8286 22.2168 29.0931C21.3352 29.7102 20.3654 30.3274 19.3956 30.7682C19.043 30.9445 18.7785 31.0327 18.4258 31.1208C18.4258 31.1208 18.2495 31.1208 18.1614 31.1208C17.7206 31.1208 17.5442 30.8563 17.6324 30.5037C17.6324 30.2392 17.7206 29.9747 17.8969 29.7102C18.2495 28.9168 18.6903 28.1233 19.2193 27.4181C19.3956 27.1536 19.6601 26.8009 19.8364 26.5364C20.3654 25.743 21.0707 25.1259 21.776 24.4206C23.0984 23.0982 24.509 21.6876 25.9195 20.3652C27.7709 18.5138 29.6223 16.7505 31.4737 14.8992C31.65 14.7228 31.8263 14.5465 32.0027 14.3702C32.9724 13.6649 34.383 13.9294 34.912 14.9873C35.0883 15.2518 35.1765 15.6045 35.1765 15.9571L35.0002 15.8689Z" fill="#727272"/>
</g>
<defs>
<clipPath id="clip0_4089_3355">
<rect width="35" height="35" fill="white"/>
</clipPath>
</defs>
</svg>
