<svg width="14" height="17" viewBox="0 0 14 17" fill="none" xmlns="http://www.w3.org/2000/svg">
<g clip-path="url(#clip0_3691_3695)">
<path d="M1.8995 17C1.40703 16.8893 0.969849 16.6778 0.623116 16.3053C0.231156 15.8824 0 15.379 0 14.7951C0 11.4122 0 8.02428 0 4.6414C0 3.43322 1.02513 2.42138 2.22613 2.42138C4.07035 2.42138 5.91457 2.42138 7.75879 2.42138C8.22613 2.42138 8.62814 2.59254 8.95477 2.90968C9.80904 3.75037 10.6583 4.60113 11.4975 5.45691C11.8492 5.81433 12 6.27243 12 6.7708C12 8.89517 12 11.0195 12 13.1389C12 13.3805 12.0201 13.3956 12.2362 13.2798C12.6181 13.0684 12.8141 12.7412 12.8191 12.3083C12.8291 11.6136 12.8191 10.9138 12.8191 10.2191C12.8191 7.59135 12.8191 4.96861 12.8191 2.34083C12.8191 1.76695 12.4874 1.33906 11.9648 1.20314C11.8794 1.183 11.7889 1.17797 11.7035 1.17797C9.08543 1.17797 6.47236 1.17797 3.85427 1.17797C3.50251 1.17797 3.22111 1.31389 2.99497 1.57062C2.93467 1.63607 2.87437 1.67634 2.78392 1.67634C2.46231 1.67634 2.14573 1.67634 1.82412 1.67634C1.65829 1.67634 1.64322 1.64614 1.69849 1.48505C2.00502 0.614155 2.87437 0 3.78392 0C6.44221 0 9.10553 0 11.7638 0C12.9648 0 13.9899 1.01688 13.995 2.21498C13.995 5.59283 13.995 8.97068 13.995 12.3485C13.995 13.3906 13.2312 14.3168 12.191 14.5383C12.0503 14.5686 12.005 14.6189 11.995 14.7649C11.9095 15.9378 11.2563 16.708 10.1256 16.9748C10.1106 16.9748 10.0955 16.9849 10.0804 16.995H1.8995V17ZM1.17588 9.71572C1.17588 11.3568 1.18593 12.9979 1.17085 14.6441C1.16583 15.3539 1.71859 15.8472 2.36683 15.8422C4.78392 15.822 7.201 15.822 9.61809 15.8422C10.2613 15.8472 10.8442 15.3589 10.8191 14.634C10.794 13.9393 10.8141 13.2396 10.8141 12.5449C10.8141 10.6219 10.8141 8.69884 10.8141 6.7708C10.8141 6.52917 10.804 6.5191 10.5829 6.5191C10.206 6.5191 9.83417 6.5191 9.45729 6.5191C8.63819 6.50903 7.95477 5.93012 7.82412 5.12467C7.75377 4.69174 7.80402 4.25378 7.79899 3.81581C7.79899 3.64969 7.75377 3.59935 7.58291 3.59935C5.81909 3.60438 4.05025 3.59935 2.28643 3.59935C2.20603 3.59935 2.1206 3.60438 2.0402 3.62452C1.51256 3.75037 1.1809 4.1833 1.1809 4.75718C1.1809 6.40835 1.1809 8.06455 1.1809 9.71572H1.17588Z" fill="white"/>
<path d="M5.98995 9.49927C6.94473 9.49927 7.8995 9.49927 8.85427 9.49927C8.9598 9.49927 9.06533 9.49927 9.16583 9.52947C9.47739 9.60498 9.69849 9.88689 9.69347 10.2091C9.69347 10.5312 9.46231 10.8031 9.14573 10.8685C9.05528 10.8887 8.9598 10.8937 8.86432 10.8937C6.94975 10.8937 5.03518 10.8937 3.1206 10.8937C2.69347 10.8937 2.42211 10.7125 2.32663 10.3802C2.21608 10.0077 2.44724 9.62009 2.83417 9.52947C2.92965 9.5043 3.03015 9.5043 3.13065 9.5043C4.08543 9.5043 5.0402 9.5043 5.99498 9.5043L5.98995 9.49927Z" fill="white"/>
<path d="M5.98995 12.4089C6.98995 12.4089 7.98492 12.4089 8.98492 12.4089C9.48241 12.4089 9.80904 12.862 9.65829 13.3151C9.56784 13.5919 9.29145 13.7832 8.96482 13.7832C8.37688 13.7832 7.78392 13.7832 7.19598 13.7832C5.82412 13.7832 4.44723 13.7832 3.07537 13.7832C2.88945 13.7832 2.71357 13.748 2.56281 13.6272C2.33166 13.4409 2.2412 13.154 2.33166 12.8872C2.42211 12.6053 2.67839 12.4089 2.9799 12.4089C3.98492 12.4089 4.98995 12.4089 5.98995 12.4089Z" fill="white"/>
<path d="M4.73367 7.98404C4.17086 7.98404 3.60804 7.98404 3.04523 7.98404C2.61307 7.98404 2.29146 7.68199 2.29146 7.29437C2.29146 6.90172 2.61809 6.60974 3.05025 6.60974C4.17086 6.60974 5.29146 6.60974 6.40704 6.60974C6.8392 6.60974 7.1407 6.89165 7.1407 7.29437C7.1407 7.70716 6.84422 7.98404 6.40201 7.98907C5.84422 7.98907 5.28643 7.98907 4.72864 7.98907L4.73367 7.98404Z" fill="white"/>
</g>
<defs>
<clipPath id="clip0_3691_3695">
<rect width="14" height="17" fill="white"/>
</clipPath>
</defs>
</svg>
