<svg width="18" height="18" viewBox="0 0 18 18" fill="none" xmlns="http://www.w3.org/2000/svg">
<g clip-path="url(#clip0_1930_3136)">
<path d="M13.508 11.4763C12.5149 11.4763 11.6258 11.9294 11.0358 12.6396L7.19829 10.4608C7.31763 10.125 7.38322 9.76387 7.38322 9.38757C7.38322 9.01134 7.31763 8.65026 7.19829 8.31443L11.0355 6.1351C11.6254 6.84551 12.5147 7.29872 13.5079 7.29872C15.2795 7.29872 16.7208 5.85685 16.7208 4.08448C16.721 2.31263 15.2796 0.871216 13.508 0.871216C11.7362 0.871216 10.2947 2.31263 10.2947 4.0844C10.2947 4.46071 10.3602 4.82187 10.4796 5.15777L6.64216 7.33717C6.05229 6.62714 5.16326 6.17423 4.17033 6.17423C2.39826 6.17423 0.956543 7.61565 0.956543 9.3875C0.956543 11.1593 2.39826 12.6007 4.17033 12.6007C5.16326 12.6007 6.05222 12.1478 6.64208 11.4378L10.4796 13.6167C10.3602 13.9526 10.2946 14.3138 10.2946 14.6902C10.2946 16.462 11.7361 17.9034 13.508 17.9034C15.2796 17.9034 16.7209 16.4619 16.7209 14.6902C16.721 12.9181 15.2796 11.4763 13.508 11.4763ZM13.508 1.99563C14.6596 1.99563 15.5966 2.93263 15.5966 4.0844C15.5966 5.23677 14.6596 6.17423 13.508 6.17423C12.3562 6.17423 11.4191 5.23677 11.4191 4.0844C11.4191 2.93263 12.3562 1.99563 13.508 1.99563ZM4.17041 11.4763C3.01834 11.4763 2.08103 10.5393 2.08103 9.38757C2.08103 8.23573 3.01834 7.29872 4.17041 7.29872C5.32203 7.29872 6.25888 8.23573 6.25888 9.38757C6.25888 10.5393 5.32195 11.4763 4.17041 11.4763ZM13.508 16.7791C12.3562 16.7791 11.4191 15.842 11.4191 14.6903C11.4191 13.5381 12.3562 12.6008 13.508 12.6008C14.6596 12.6008 15.5966 13.5381 15.5966 14.6903C15.5966 15.842 14.6596 16.7791 13.508 16.7791Z" fill="#4F8640"/>
</g>
<defs>
<clipPath id="clip0_1930_3136">
<rect width="17.0323" height="17.0323" fill="white" transform="translate(0.322632 0.871216)"/>
</clipPath>
</defs>
</svg>
